<svg id="svg" xmlns="http://www.w3.org/2000/svg" viewBox="0 0 369.36 364.1"><defs><style>.cls-1{opacity:0.07;}.cls-2{fill:#4bc3f2;}.cls-10,.cls-2,.cls-3,.cls-4,.cls-5,.cls-6,.cls-7,.cls-8,.cls-9{fill-rule:evenodd;}.cls-3{fill:#040404;}.cls-4{fill:#4e5255;}.cls-5{fill:#3c3a3b;}.cls-6{fill:#292b2d;}.cls-7{fill:#266c84;}.cls-8{fill:#6c6c6c;}.cls-9{fill:#241c1c;}.cls-10{fill:#343c3c;}</style></defs><g id="svgg" class="cls-1"><path id="path0" class="cls-2" d="M183.7,5c-.1.15,1,.28,2.37.28s2.43-.11,2.3-.24c-.35-.35-4.46-.38-4.67,0m11.82,0c-.23.15.83.28,2.37.28s2.69-.1,2.56-.24c-.35-.34-4.4-.38-4.93,0m-9.87,33.76c-2.5.93-7.17,2.64-10.39,3.81L166,45.93c-1.87.69-6.46,2.34-10.19,3.68-7.22,2.59-7.72,2.9-5.78,3.55.68.22,2.85,1,4.82,1.71s6.57,2.37,10.2,3.66a59.79,59.79,0,0,1,7.21,2.88,2.16,2.16,0,0,0,1.22.53c.57,0,4.9,1.46,14.78,5,3.06,1.08,3.51,1.15,4.72.72,2.51-.88,10-3.82,14-5.47,2.18-.91,5-2,6.27-2.42s2.89-1,3.59-1.33,3.32-1.35,5.81-2.3c6.19-2.35,8.12-3.26,8.12-3.8,0-.73-2.15-1.62-14.92-6.2-1.66-.6-4.72-1.7-6.79-2.46l-6.24-2.26-7.15-2.62c-5.56-2-4.46-2-10,0M89.87,45.23l-.92,1,1.13-.94c.63-.52,1.21-1,1.3-1s0-.1-.22-.1a3.31,3.31,0,0,0-1.29,1M211.71,69.17c-1,.42-3.25,1.25-4.91,1.85s-4.64,1.69-6.61,2.44-4.52,1.7-5.67,2.1-2.42.92-2.84,1.14c-.63.32-3.06-.36-12.76-3.59-14.27-4.75-12.57-4.63-14.71-1.06-11.77,19.63,2.62,42.88,26.54,42.88,25,0,39-24.85,25.23-45-1.24-1.81-1.61-1.88-4.27-.8m-62.4,14.49c0,1.25.08,1.72.16,1a10.75,10.75,0,0,0,0-2.27c-.09-.57-.16,0-.16,1.23m83.83.19c0,.73.07,1,.17.66a3.26,3.26,0,0,0,0-1.32c-.1-.36-.17-.06-.17.66m-83.85,4c0,.83.08,1.12.17.65a4.25,4.25,0,0,0,0-1.51c-.1-.36-.17,0-.17.86m83.86.38c0,.83.08,1.12.17.65a4.23,4.23,0,0,0,0-1.51c-.1-.36-.17,0-.16.86M50.05,104.4c-10,3.15-10.92,16-1.51,20.31,6.76,3.08,14.92-2.33,14.92-9.89,0-6.85-7.15-12.4-13.41-10.42m279.72.28a10.62,10.62,0,0,0-.94,19.95c3.78,1.58,4.55,1.54,8.71-.45,11.63-5.54,4.52-23.39-7.77-19.5m9,39.5a4.23,4.23,0,0,0,1.51,0c.36-.1,0-.17-.85-.16s-1.13.08-.66.17m3.65,9.17c0,4.05.05,5.71.12,3.69s.07-5.34,0-7.37-.12-.37-.12,3.68M41.9,150.05a66.8,66.8,0,0,0,.08,9.42c.17.27.31-1.76.32-4.51,0-4.05-.14-5.78-.4-4.91m10.7,3.87c0,.83.08,1.12.17.65a4,4,0,0,0,0-1.5c-.09-.37-.17,0-.16.85m123.79-.85c0,.16.8.28,1.76.28s1.64-.12,1.48-.28a3.79,3.79,0,0,0-1.76-.28c-.81,0-1.48.12-1.48.28m22.05,0c-.1.16.51.3,1.35.3a4.25,4.25,0,0,0,1.53-.14c0-.31-2.7-.45-2.88-.16m133.3,8.61c0,.94.07,1.32.16.85a5.39,5.39,0,0,0,0-1.7c-.09-.46-.16-.08-.16.85m-163.28,1.13c.73.48,1.13.48,1.13,0,0-.2-.38-.37-.85-.37-.68,0-.74.08-.28.37M42.39,167c0,.73.08,1,.17.66a2.94,2.94,0,0,0,0-1.32c-.09-.36-.17-.07-.17.66m289,1.51c0,.73.08,1,.18.66a3.26,3.26,0,0,0,0-1.32c-.1-.36-.18-.07-.18.66m-.57,3.91a1.27,1.27,0,0,0,.14,1c.24.39.34.25.34-.5,0-1.13-.18-1.33-.48-.53M54,179c0,.45.16.82.35.82.38,0,.32-1-.08-1.37-.15-.15-.27.1-.27.55M86,246.39a2.4,2.4,0,0,0,.93.93c.7.44.72.42.28-.28s-1.49-1.36-1.21-.65m23.33,20.83c-9.3,4.72-7.72,18.14,2.39,20.23,9.82,2,16.68-9.28,10.44-17.2-2.86-3.63-8.86-5.05-12.83-3m156-.05c-10.3,4.93-7.13,20.39,4.19,20.43,5.3,0,8.67-2.48,10.35-7.68.52-1.6.54-4.82,0-5.13a1.57,1.57,0,0,1-.38-1.16c0-.51-.17-.92-.38-.92a.45.45,0,0,1-.39-.47c0-.64-2.48-3.32-4.22-4.6-2.1-1.56-6.49-1.78-9.21-.47M12.09,269.43a9.76,9.76,0,0,0,1.22,1.23l1.23,1.11-1.11-1.23c-1-1.15-1.34-1.4-1.34-1.11m20.77,1.14c-1.15,1.05-2.44,2.52-2.21,2.52a14.59,14.59,0,0,0,1.83-1.7c1.76-1.79,2-2.28.38-.82m13.6,18.5a.61.61,0,0,1-.58.64c-.51,0-.49.13.09.9.37.5.75.84.84.75s0-.35-.27-.59-.27-.55.22-.91.55-.57.17-1-.47-.35-.47.17m52.61,4.15c.46.48.9.82,1,.76s-1.15-1.63-1.52-1.63c-.17,0,.07.39.53.87m78.55,1.28a2.94,2.94,0,0,0,1.32,0c.37-.1.07-.17-.66-.17s-1,.07-.66.17m6.23.38a5.39,5.39,0,0,0,1.7,0c.47-.09.09-.16-.85-.16s-1.32.07-.85.16m14.93,0a6.62,6.62,0,0,0,1.89,0c.46-.09,0-.16-1-.15s-1.42.07-.84.16m1.5,10.19a3.26,3.26,0,0,0,1.32,0c.37-.1.07-.18-.66-.18s-1,.08-.66.18m18.13,5.29a8,8,0,0,0,2.08,0c.57-.08.11-.15-1-.15s-1.61.07-1,.15m7.94,0a39.27,39.27,0,0,0,4.34,0c1.19-.07.22-.13-2.17-.13s-3.37.06-2.17.13M81.87,314.9a5.39,5.39,0,0,0,1.7,0c.47-.09.08-.16-.85-.16s-1.32.07-.85.16m149.39,0a7,7,0,0,0,1.89,0c.46-.09,0-.16-1-.16s-1.42.08-.85.17m81.87,3.54c0,1.09.09,1.88.21,1.77.39-.39.51-3.29.15-3.52s-.36.59-.36,1.75m-245,4.87c0,.73.07,1,.17.66a3.26,3.26,0,0,0,0-1.32c-.1-.36-.17-.06-.17.66m12.58,0c-.13.2.22.27.82.17,1.39-.26,1.59-.52.38-.52a1.72,1.72,0,0,0-1.2.35m192.91,10.87a6.57,6.57,0,0,0,1.88,0c.47-.09,0-.16-1-.16s-1.42.07-.84.16m49.09,1.62c0,.73.07,1,.17.66a3.26,3.26,0,0,0,0-1.32c-.1-.37-.17-.07-.17.66m-11.61,6c0,.62.13,1.13.28,1.13s.28-.51.28-1.13-.12-1.13-.28-1.13-.28.51-.28,1.13m21.72-.47c0,.83.74,1.38.75.57,0-.47-.17-.85-.38-.85s-.37.12-.37.28M119.45,345.8c0,.83.09,1.12.17.65a4.24,4.24,0,0,0,0-1.51c-.1-.36-.17,0-.17.86m16.77,6.07c-.6.53-1,1.06-.85,1.19s.27.16.32.07.51-.62,1-1.19c1.14-1.29.94-1.32-.48-.07M99.81,356c0,.83.08,1.12.17.65a4.24,4.24,0,0,0,0-1.51c-.1-.36-.17,0-.17.86m84.9,3.11c0,.83.74,1.38.74.57,0-.47-.16-.85-.37-.85a.33.33,0,0,0-.37.28m121.73,2.74c0,1.14.07,1.61.16,1a9,9,0,0,0,0-2.08c-.09-.57-.16-.1-.16,1M74.7,363.63a4,4,0,0,0,1.51,0c.36-.09,0-.17-.86-.16s-1.12.08-.65.17m-2.08,4.91a6.64,6.64,0,0,0,1.89,0c.46-.09,0-.16-1-.16s-1.42.08-.85.16m121.06,0a4,4,0,0,0,1.51,0c.36-.09,0-.17-.86-.16s-1.12.08-.65.17" transform="translate(-12.09 -4.54)"/><path id="path1" class="cls-3" d="M186.59,5.69c-1.56.17-5,.39-7.7.51a36.61,36.61,0,0,0-5.07.4c-.39.4-2.28.19-2.47-.27-.11-.28-.2-.21-.22.19s-.33.66-.93.66a41.93,41.93,0,0,0-4.61.76,19.8,19.8,0,0,1-4.2.58c-.27-.1-.48,0-.48.18s-.27.36-.6.36a35.36,35.36,0,0,0-3.83.8c-1.78.44-3.42.83-3.65.86a2.68,2.68,0,0,0-.8.3c-.21.12-1.91.6-3.78,1.07a22.43,22.43,0,0,0-3.81,1.17,20.49,20.49,0,0,1-3,1.24,106.56,106.56,0,0,0-15.83,6.87c-8.17,4.08-9.12,4.63-15.43,8.83A111.19,111.19,0,0,0,97.6,39.46,164.46,164.46,0,0,0,72.73,65.19C68.62,70.49,60.54,83.36,61,83.83a44.4,44.4,0,0,0,6.7,2.67c1.64.51,1.73.44,3.33-2.62,3.67-7,13.78-19.91,22.43-28.54a136.22,136.22,0,0,1,20.76-17c4-2.67,10.58-6.59,11.08-6.59a1.46,1.46,0,0,0,.81-.55,7.11,7.11,0,0,1,2.22-1.2,10.63,10.63,0,0,0,2.33-1.11,18.54,18.54,0,0,1,2.83-1.4L139.38,25c4.72-2,14.5-5.28,16.63-5.6a6.5,6.5,0,0,0,2.17-.64c.26-.21.59-.27.72-.14s.42.09.65-.09c.5-.39,3.32-1.05,6.65-1.55,1.34-.21,2.79-.45,3.2-.55,3.34-.78,5.33-1,11.13-1.34,7.91-.44,18.9-.49,18.91-.1a27,27,0,0,0,5.57.35,55.27,55.27,0,0,1,7.45.49c1,.24,2.32.5,2.84.58s1.45.26,2.08.39l4.15.8a15.91,15.91,0,0,1,3.43.91c.23.19.52.24.66.11s.45-.07.72.14a6.42,6.42,0,0,0,2.17.64c3.12.48,16.53,5.1,16.09,5.54-.09.09.25.18.74.21a10.62,10.62,0,0,1,2.71.9c5.67,2.66,10.52,5,10.69,5.24A17.23,17.23,0,0,0,261,32.63c4.87,2.55,16.17,10.17,19.45,13.13L285,49.7A146.37,146.37,0,0,1,302.2,67.61L304,69.88c1.52,1.88,6.3,8.92,9.27,13.69,1.4,2.23,2.59,4.06,2.65,4.06s.86-.32,1.76-.7c1.6-.68,3-1.24,3.36-1.38,2.69-.91,2.78-1.37.95-4.82-1.21-2.27-7.53-11.91-9.41-14.34-14.15-18.28-29.52-31.79-48.16-42.3-4.38-2.47-14.78-7.47-15.54-7.47a8.88,8.88,0,0,1-2-.78,36,36,0,0,0-4-1.56,25.83,25.83,0,0,1-2.83-1,2.61,2.61,0,0,0-.57-.28,7,7,0,0,1-.75-.25c-.32-.12-1.8-.52-3.31-.89a7.23,7.23,0,0,1-2.74-1c0-.18-.14-.24-.31-.13a6.7,6.7,0,0,1-2.36-.37c-3-.82-14.91-3.18-16-3.18-.53,0-1-.15-1-.33s-.42-.24-.94-.15a3.43,3.43,0,0,1-1.55,0,39.14,39.14,0,0,0-5.2-.43c-2.52-.11-6.37-.36-8.55-.56a40.91,40.91,0,0,0-10.2,0m-.38,25.84c-3.26,1-6,2-13.41,4.73-2.9,1.07-6.55,2.37-8.1,2.88a20.9,20.9,0,0,0-3.21,1.26,16.64,16.64,0,0,1-2.9,1.13,33.36,33.36,0,0,0-4,1.55,7.15,7.15,0,0,1-2,.73,12.92,12.92,0,0,0-2.66.93c-1.17.51-4.67,1.9-7.79,3.09-9.54,3.64-10.6,5-6,7.47A16,16,0,0,0,139,56.66a12.75,12.75,0,0,1,2.34.91c1.08.5,4.6,1.89,7.82,3.08a58.76,58.76,0,0,1,6.32,2.59c.57.52-2,6.38-2.67,6-.2-.13-.25,0-.11.19.27.44-.75,4.49-1.31,5.2-1.4,1.75-1.4,19.77,0,21.46a8.57,8.57,0,0,1,.81,2.31c3,12.42,17.31,25.23,30.84,27.58,6,1,18.44.46,20.32-1A18.71,18.71,0,0,1,206,124c10.67-3.66,22-15.38,24.41-25.25a9.39,9.39,0,0,1,.75-2.23,6.55,6.55,0,0,0,.56-2c.14-.87.37-1.58.52-1.58s.19-.51.1-1.13a4.22,4.22,0,0,1,.1-1.79,19.15,19.15,0,0,0,.21-4c-.05-2.38.07-3.31.4-3.31s.24-.24-.17-.69a4.94,4.94,0,0,1-.26-4.22c.61-1,1.21.1,1.77,3.09,1.52,8.08,4,10.51,8.42,8.25,4.11-2.1,4-4.21-.54-7-3.06-1.87-3.76-3.67-2.46-6.36.41-.86.63-1.66.47-1.77-2-1.51-2.66-12.65-.82-14.55a1.24,1.24,0,0,0,.34-.76c0-.22-.17-.14-.37.17s-.37.29-.37-.63.15-1.23,1.22-1.46c3.23-.71,6.24-3.32,5.39-4.69A13.76,13.76,0,0,0,241.93,50c-.21-.05-2-.76-4-1.6-6.81-2.89-11.07-4.61-11.45-4.61a11.94,11.94,0,0,1-2.3-.9,42.08,42.08,0,0,0-4.1-1.58,5.39,5.39,0,0,1-2.17-1c0-.17-.26-.31-.59-.31s-.49-.16-.37-.35-.1-.26-.48-.16a6.9,6.9,0,0,1-2.74-.63c-2.44-1-7.91-3-12.63-4.71-1.87-.68-3.9-1.43-4.51-1.68-4.84-1.93-6.8-2.12-10.41-1m8.37,6.4c3.59,1.19,9,3.15,9.95,3.61.42.2,1.78.69,3,1.1,3.34,1.1,9.71,3.4,10.58,3.83.42.2,2,.78,3.4,1.29,11,3.85,12,4.6,8.12,6.07-2.9,1.09-8.28,3.19-11.14,4.35-1.66.67-4.3,1.64-5.86,2.15a38.21,38.21,0,0,0-4.53,1.79,26,26,0,0,1-3.21,1.34,9.51,9.51,0,0,0-1.89.76,28.14,28.14,0,0,1-3.21,1.28c-1.56.56-3.59,1.36-4.51,1.78-2.82,1.31-6.36,1.13-8.52-.42-.54-.39-12.8-4.54-13.41-4.54a2.13,2.13,0,0,1-1.1-.51A14.35,14.35,0,0,0,169,60.43c-1.46-.47-2.81-1-3-1.06-.36-.21-4.6-1.72-10.21-3.65-9.32-3.19-9.44-3.48-2.46-5.66,1.14-.35,2.59-.87,3.21-1.13s2.07-.79,3.21-1.15,2.59-.88,3.21-1.16c1.26-.57,6.13-2.36,10.2-3.77,1.46-.5,4.52-1.6,6.8-2.45s5.43-2,7-2.51a19.29,19.29,0,0,0,3.17-1.28,1,1,0,0,1,1,0c.36.19,1.91.77,3.44,1.28m39.29,23c.79,1.48.24,10.83-.73,12.4a5.73,5.73,0,0,0-.85,2c0,.35-.19.58-.43.5-.51-.17-1.52-3.3-1.28-4,.09-.25,0-.51-.13-.57-.46-.19-3.82-7.5-3.82-8.31,0-1.77,6.41-3.63,7.24-2.09M216.55,70c7.62,10.9,7,24.76-1.54,34.66-3.73,4.33-5.78,5.73-13.17,9-5.48,2.45-17.06,2.33-22.67-.24a18.74,18.74,0,0,0-2.29-.93A24.26,24.26,0,0,1,174,111c-14.89-8.79-19.17-29.3-8.64-41.37l1.06-1.22,4.35,1.51c2.39.83,5.7,1.93,7.36,2.45s5,1.63,7.37,2.48c5.31,1.88,5,1.87,9.44.16,2-.76,5.12-2,7-2.66l6.42-2.39c1.66-.62,3.62-1.39,4.34-1.72,2-.86,2.07-.81,3.9,1.81M328.29,93.72a28.17,28.17,0,0,0-8.44,3.64c-3.15,2.52-5.82,6.08-6.73,9a8.81,8.81,0,0,1-.8,1.92c-.18.23-.22.51-.1.64s.08.44-.09.72c-.53.84-.45,9,.11,10.8.91,2.91.91,2.91-3.43,4.66-1,.41-2.55,1.06-3.4,1.44-5.31,2.4-16.31,6.82-16.94,6.82a6.33,6.33,0,0,0-1.84.74,22.77,22.77,0,0,1-3.58,1.36,21.24,21.24,0,0,0-3.16,1.15c-1.65.9-21.8,7.27-23.8,7.53a8.42,8.42,0,0,0-1.59.49,33.26,33.26,0,0,1-4.16,1,30.72,30.72,0,0,0-3.88.94,30.58,30.58,0,0,1-6.61,1.53,14.86,14.86,0,0,0-3.21.73c-.57.45-8,1.63-8.88,1.4-.42-.11-.75,0-.75.15s-.33.34-.74.34a17.94,17.94,0,0,0-2.93.58,29.63,29.63,0,0,1-5.23.74,23,23,0,0,0-3.68.4,6.28,6.28,0,0,1-2.15.1,3,3,0,0,0-1.61.1c-.63,1.6-43.34,1.59-43.34,0,0-.13-.77-.17-1.7-.09s-1.7,0-1.7-.2-.64-.27-1.42-.2a22.31,22.31,0,0,1-4.63-.48c-1.76-.34-5.25-.95-7.74-1.36s-5.64-1.05-7-1.43-4-1-5.85-1.35a19.55,19.55,0,0,1-3.77-1,10.65,10.65,0,0,0-2.75-.74c-3.86-.7-17.63-4.89-26.53-8.08l-6.38-2.27a21.33,21.33,0,0,1-3.21-1.34,8,8,0,0,0-2-.78c-1.45-.39-12.58-5.1-18.29-7.75-2.37-1.1-2.72-1.89-1.59-3.51.33-.47.47-.84.33-.84s0-.28.26-.62c.6-.73.72-10.18.13-11.1a3.66,3.66,0,0,1-.38-.75c0-.1-.32-.85-.67-1.65a10.92,10.92,0,0,1-.63-1.67c0-2.3-6.28-8.37-10.22-9.88-1.13-.44-2.47-1-3-1.26-1.16-.59-10.65-.63-11.4,0a16.35,16.35,0,0,1-2.8,1.25,19.4,19.4,0,0,0-10.25,9.86c-.52,1.15-1.09,2.36-1.27,2.69a9.2,9.2,0,0,0-.58,2c-.14.75-.37,1.37-.5,1.37a11.06,11.06,0,0,0-.24,3.21,9.65,9.65,0,0,0,.28,3.21c.16,0,.29.35.29.77,0,5,6.68,12.79,13.39,15.59,2.62,1.1,11.16,2.09,11.16,1.3,0-.16.33-.29.73-.29a1.26,1.26,0,0,0,.94-.33,5.57,5.57,0,0,1,2-.78,18,18,0,0,0,3.55-1.41l1.76-.95,1.75,1a9.5,9.5,0,0,0,2.16,1,11.35,11.35,0,0,1,2.35,1c1.07.54,2.71,1.28,3.64,1.65s3.23,1.32,5.1,2.1c5,2.08,10.59,4.26,13.6,5.31,1.45.5,3,1.08,3.4,1.29.93.46,6.67,2.42,10,3.41,1.35.41,3,1,3.78,1.3a34.52,34.52,0,0,0,3.77,1.17,27.5,27.5,0,0,1,3.59,1.11,31,31,0,0,0,3.88,1.14,10.56,10.56,0,0,1,3,1,.41.41,0,0,0,.56.13.87.87,0,0,1,.82.07,3.06,3.06,0,0,0,1,.36c1.59.2,15.7,3.73,15.79,3.95s.48.18.94.09a14.94,14.94,0,0,1,3.67.46c1.56.34,4,.8,5.38,1a7.67,7.67,0,0,1,2.55.66c0,.13.56.17,1.23.1a40.72,40.72,0,0,1,5.76.48c2.49.34,5.71.71,7.15.81s2.4.32,2.13.49.68.22,2.11.13c8.37-.55,8.47.05,1.71,10.46-5.56,8.57-7.12,11-8.72,13.35-3.68,5.49-6.18,9.25-6.64,10-.67,1-11.09,17-16,24.44-2.59,3.95-5.49,8.37-6.45,9.82s-1.87,2.82-2,3-1,1.4-1.75,2.65c-1.74,2.71-6.84,10.57-7.72,11.9l-2.43,3.64c-1,1.49-2,3-2.22,3.4-.38.63-1.14.72-7.74.89l-7.33.19-2.73,1.46c-3.29,1.75-7.3,5.34-8.67,7.74-.56,1-1.19,2-1.41,2.28-1,1.31-2.54,13.26-1.7,13.26a4.69,4.69,0,0,1,.63,1.79c.86,3.72,4.87,8.9,9,11.66,11.51,7.65,27.77,1.53,31.32-11.81.59-2.21.69-11.84.12-11.84-.13,0-.44-.55-.67-1.23a43.44,43.44,0,0,0-2.31-4.53l-1.88-3.31,1-1.6c.55-.89,2.56-4,4.47-6.89s4.38-6.69,5.48-8.41a17.75,17.75,0,0,1,2.29-3.11c.15,0,.35-.31.45-.69.15-.6,5.24-8.52,10.07-15.68.95-1.42,2.07-3.12,2.48-3.78s2.87-4.43,5.47-8.37,4.91-7.45,5.12-7.79.7-1.1,1.1-1.7c.61-.91,3.46-5.25,9.51-14.46.6-.91,1.26-1.94,1.47-2.28.37-.61,2.94-4.51,8.15-12.36,5-7.58,4.07-7.4,8-1.45.56.83,1.14,1.68,1.3,1.89s2.38,3.52,4.94,7.36,4.88,7.33,5.16,7.75,5.89,8.83,12.46,18.69,12,18.12,12.21,18.32,3.32,5,7,10.58c5.76,8.69,8.19,12.38,12,18.32.34.52,1.31,1.94,2.14,3.15,1.78,2.58,1.86,3.26.58,4.94a5.33,5.33,0,0,0-.94,1.58,6.18,6.18,0,0,1-.92,1.7c-5.16,7.59-1.56,20.9,7.25,26.83,1.09.74,1.85,1.48,1.69,1.65s-.1.21.11.09a12.31,12.31,0,0,1,3.59.78c3.85,1.2,8.71,1.35,11.32.33,2.18-.84,4.27-1.36,4.62-1.15s.3.08.15-.16.46-.83,1.46-1.42a26,26,0,0,0,6.74-7.12l1.27-2.28c1.27-2.27,1.54-10.82.47-14.68-1.56-5.63-10.14-13.86-14.44-13.86-.53,0-1-.13-1.09-.29a29.39,29.39,0,0,0-5.6-.06c-7.71.31-3.9,4.74-31.77-36.86-7.93-11.84-14.66-21.87-14.95-22.28-.43-.62-10.27-15.54-11.64-17.66-.2-.33-1.15-1.75-2.11-3.18-2.93-4.37-7.37-11.22-7.85-12.12-.62-1.17,0-1.38,4.36-1.4a10.16,10.16,0,0,0,3.3-.27c-.09-.13.91-.33,2.21-.44s4.31-.47,6.7-.8a34.76,34.76,0,0,1,5.76-.44c.78.09,1.42,0,1.42-.12a5.91,5.91,0,0,1,2.36-.68l5.9-1.06c3-.55,3.58-.57,3.86-.13s.33.43.34,0,1.28-.86,4.82-1.65c2.65-.6,7.45-1.76,10.67-2.59s6.62-1.67,7.55-1.87a17.53,17.53,0,0,0,2.84-.87,29.5,29.5,0,0,1,3.78-1.12c1.45-.35,2.89-.73,3.2-.86l.76-.3c.11,0,.67-.26,1.25-.5a6.25,6.25,0,0,1,1.44-.44c.21,0,2.36-.67,4.79-1.5,3.85-1.31,6.57-2.27,18-6.41a33.6,33.6,0,0,0,3.21-1.32,26.23,26.23,0,0,1,3-1.17,17.39,17.39,0,0,0,2.85-1.17,18.4,18.4,0,0,1,3-1.26,16.13,16.13,0,0,0,2.63-1.1,19.66,19.66,0,0,1,2.68-1.27c1.25-.52,3.24-1.38,4.43-1.92l2.16-1,2.56,1.34c10.69,5.62,21.75,3.55,27.94-5.23,11.26-16-1.64-36.31-21-33.1m-271,10.9c7.51,3.21,8.92,13.27,2.64,18.81-5.21,4.58-14.39,2.56-17.2-3.79a11.15,11.15,0,0,1,14.56-15m280.63.31c4.75,2.55,7.57,8.9,5.74,12.95a19.34,19.34,0,0,0-.83,2.15,7.33,7.33,0,0,1-1.64,2.22c-6.3,6.17-16.06,4.1-18.89-4-3.09-8.88,7.31-17.75,15.62-13.31M42.74,147a70.31,70.31,0,0,0-.06,14.78c.2,1.27.64,5.37,1,9.11s.74,7.48.92,8.31.59,2.78.93,4.33a13.08,13.08,0,0,1,.45,3.49c-.1.37,0,.67.21.67s.31.43.21.95-.07.94.08.94.44.73.67,1.61a164.86,164.86,0,0,0,5.58,17.85c.27.62.78,1.89,1.13,2.83A151.63,151.63,0,0,0,65,233.62a37,37,0,0,1,1.89,3.3c.25.57.57,1,.7,1a3.55,3.55,0,0,1,1,1.23c1.92,3.27,11.65,15.32,15.55,19.27L86.63,261l.91-.85a38.86,38.86,0,0,0,4.62-6.06,25.56,25.56,0,0,0-2.74-3.21,92.26,92.26,0,0,1-6.32-7.25c-.52-.68-1.51-1.92-2.2-2.76s-2.59-3.59-4.24-6.1-3.3-5-3.69-5.51c-2.07-2.8-9.71-17.88-11.19-22.09a27.58,27.58,0,0,0-1.15-2.84,29.22,29.22,0,0,1-1.28-3.49,28.47,28.47,0,0,0-1.18-3.31,32,32,0,0,1-1.32-4.25c-.5-1.92-1.18-4.42-1.5-5.57a22.26,22.26,0,0,1-.68-4.21c-.05-1.17-.16-2.06-.26-2-.51.5-1.57-7.08-1.68-12.14a46.65,46.65,0,0,0-.42-6.35,47.28,47.28,0,0,1-.1-7.07c.1-3.51,0-6.3-.12-6.19s-.36-.78-.42-2l-.11-2.15-2.64-.53a12.55,12.55,0,0,1-2.84-.79,3.43,3.43,0,0,0-1.55-.34l-1.36-.09L42.74,147m292.67-2-2.45.22-.26,11.33c-.14,6.23-.45,12.44-.68,13.79s-.53,3.18-.64,4.06-.31,1.54-.45,1.45a6.39,6.39,0,0,0-.32,2.57,34,34,0,0,1-.86,5.91c-.43,1.76-1.2,5-1.71,7.11a27.29,27.29,0,0,1-1.25,4.34,4.8,4.8,0,0,0-.56,1.63c-.65,3.43-6.85,18.6-9.16,22.41-.31.52-1,1.79-1.5,2.83-3.74,7.63-10.73,17.32-20.53,28.47-3.72,4.23-3.84,4.49-2.66,5.55a27.78,27.78,0,0,1,2.53,3.34l1.75,2.63,3.16-3.37c5.76-6.14,14.26-16.83,17.17-21.58,1-1.6,1.53-2.46,2.4-3.71s6.34-11.48,8-14.92a90.35,90.35,0,0,0,3.72-8.31c.16-.51.6-1.62,1-2.45s1.56-4.15,2.61-7.37,2-6.1,2.14-6.42a1.83,1.83,0,0,0,.18-.84,36.46,36.46,0,0,1,.89-3.92,36.13,36.13,0,0,0,.94-4.34c0-.4.15-.72.34-.72s.26-.31.16-.69a9.18,9.18,0,0,1,.24-2.74c.24-1.12.62-3.45.86-5.16a11.64,11.64,0,0,1,.66-3.12c.11,0,.27-6.37.33-14.16l.12-14.17-1.82.07c-1,0-2.94.16-4.29.28M19.27,263.06c-3.22,3.21-5.9,6-6,6.18-.15.43,9.33,9.51,9.93,9.51.4,0,10.37-9.58,11.41-11,.38-.49-.37-1.4-4.54-5.57l-5-5-5.85,5.83m9.43,1.56c.66.65.29,1.42-1.25,2.57l-1,.75-.95-.89c-1.17-1.1-1.21-2.05-.1-2.83a2.66,2.66,0,0,1,3.3.4m89.53,2.16a11.22,11.22,0,0,1,3.53,18.15c-6.93,6.93-19.06,1.94-19.14-7.88-.05-5.38,2.79-8.87,9.18-11.29,1.1-.41,4.37.1,6.43,1M271.84,266c6.52,2.66,8.8,5.58,8.8,11.3,0,12.49-17.45,15.06-21.54,3.16-2.7-7.84,5.67-17.34,12.74-14.46M31.94,276.09l-9,9.05,3.48,3.38c10,9.74,11.87,11.42,14,12.87a68,68,0,0,0,11.56,5.69,7.55,7.55,0,0,1,1.87.8c.64.6,1.92.35,3.22-.61,2.1-1.55,3.79-.6,6.69,3.77.56.83,1.31,1.86,1.66,2.27,2.26,2.68,3.37,5.93,3.68,10.77l.3,4.72,1.77,2.53c2.2,3.14,2.2,3.12-.21,3.92-11.52,3.79-17.58,14.2-13.2,22.64,2.15,4.13,5.69,6.9,11.78,9.2,1.07.4,9.31.25,9.86-.18A14.11,14.11,0,0,1,82,365.7a22,22,0,0,0,3.49-1.65l3.68-2.37a39.73,39.73,0,0,0,4.13-3.11c2.29-2.07,3.2-2.16,2.9-.3-.13.79-.07,1.24.14,1.11s.35.19.35.69c0,1.05,3.83,5.44,5.82,6.67,2.9,1.79,8,.67,12.37-2.69,1.8-1.4,2-1.36,3.33.62,3.54,5.13,4.87,4.51,19.47-9,9.57-8.89,10.47-9.2,8.3-2.89-2.08,6-1.6,8.12,2.8,12.41,3.84,3.73,8.91,2.84,14.25-2.49,2.44-2.44,3.17-2.37,3.62.35.34,2.06,2.84,4.49,4.61,4.5,2.33,0,13-8.58,13.05-10.5,0-1.67-2.46-.49-6.45,3.05-4.64,4.12-6.17,4.72-7.75,3-1-1.11-1-1.26-.16-6.5a80.53,80.53,0,0,1,4.59-13.88c1.82-4.42,2.38-7.82,1.25-7.61-.52.09-2.2,3.07-6,10.61-2.91,5.76-5.55,10.77-5.88,11.14a17.68,17.68,0,0,0-1.42,2,11.08,11.08,0,0,1-5.54,4.37c-6.38,2.58-10.37-3.19-7.52-10.89.32-.88,1-2.78,1.52-4.22a21.91,21.91,0,0,1,1.24-3,19.83,19.83,0,0,0,1.17-3,32.82,32.82,0,0,1,1.37-3.59c.82-1.58.69-3.45-.25-3.45s-1.73.85-4.71,4.54a122,122,0,0,1-10.57,10.94c-1.46,1.34-4.69,4.37-7.18,6.75-8.42,8-12.27,9.71-12.27,5.31,0-1.08,4.65-15.25,5.25-16a14.61,14.61,0,0,0,1-2.86,29,29,0,0,1,1.29-3.78,29.9,29.9,0,0,0,1.33-3.68,7.18,7.18,0,0,1,.94-2.36c.14,0,.26-.21.26-.47,0-.63,5.84-17.8,6.13-18s.5-3,.23-4.1l-.24-.94-.73,1.1c-.9,1.38-6.57,15.68-7.91,20a9.87,9.87,0,0,1-.75,1.88,15.49,15.49,0,0,0-1,2.46c-1.56,4.86-1.83,5-5.38,2.08-7-5.7-14.16-3.13-20.45,7.37C90.93,360,77.59,367.73,68.37,363.48a26.13,26.13,0,0,0-2.52-1c-4.25-1.3-7.82-8.73-6.57-13.69.79-3.15,6.11-9.36,7.63-8.91a.24.24,0,0,0,.32-.25c0-.51,3.27-1.68,4-1.41.32.12.59.09.59-.07,0-.86,6.84-1.83,13.69-1.94,1.56,0,1.25-.68-.57-1.17-.88-.24-1.86-.53-2.17-.64a9.5,9.5,0,0,0-1.13-.31c-7-1.35-10.2-4.62-10.2-10.35,0-3.06-.19-3,3.78-1.82,3.53,1,6.32,1,11.08,0a16.11,16.11,0,0,1,4.15-.56c.24.14.31.11.15-.06s.6-.7,1.7-1.16c2.65-1.12,2.65-1.63,0-4.32-5.57-5.57-11.12-5.93-18.25-1.2-2.91,1.94-2.78,2-5-1.42-1-1.43-3-4.1-4.54-5.93-3.46-4.14-3.48-3.54.29-8,.35-.42.35-.58,0-.7s-.46-.29-.46-.46a73.81,73.81,0,0,0-3.62-7.94,23.43,23.43,0,0,1-1.16-2.26,41.09,41.09,0,0,0-4.2-6.61C54,279.64,41.49,267,41.21,267s-4.3,4.07-9.27,9m-8.46-6.27c.44.77-.36,2.24-1.56,2.88-1.42.76-2.78-1.37-1.92-3,.49-.9,3-.84,3.48.1m14.59,10.31a2.62,2.62,0,0,1,1.37,1.41c.58,1.33,5.17,6.45,6.36,7.08.68.37.74.33.47-.29a5.77,5.77,0,0,1-.37-1.55c-.08-1-1.86-3.12-2.61-3.12-1.54,0-1.69-2.61-.19-3.42s4.46,3.72,4.88,8c.27,2.77,1.43,4.73,3.29,5.59l2,.93c1,.47,1.34,1.6,1,3.1-.52,2.08-4,1.25-4-1a3.25,3.25,0,0,0-3-2.66c-.44,0-.79-.13-.79-.28s-.91-.29-2-.29c-3.5,0-7.95-3.61-6.1-5,.84-.61,2.08,0,3.91,1.9,1.25,1.32,3.41,2.33,4.31,2,.55-.19-7.68-8.38-9.22-9.18A2.62,2.62,0,0,1,35.85,280a4.36,4.36,0,0,1,2.22.15m103.58,10.36c-2.56,5.07-2.24,5.37,8.87,8.31,2.28.61,4.49,1.25,4.91,1.43a54.07,54.07,0,0,0,5.4,1.21,25.88,25.88,0,0,1,4.85,1.18.36.36,0,0,0,.51.12,17.62,17.62,0,0,1,3.85.37,45.63,45.63,0,0,0,4.94.57c.78,0,1.41.13,1.41.29a7.07,7.07,0,0,0,2.84.15c1.55-.08,2.83,0,2.83.18,0,.37,20.65.31,21.62-.07a11.55,11.55,0,0,1,2.92-.11,5.75,5.75,0,0,0,2.28-.1,7.42,7.42,0,0,1,2.55-.47c1.4-.13,5.48-.84,9.08-1.57s7-1.32,7.46-1.32.93-.14.93-.32a14.06,14.06,0,0,1,3.87-1.17,41.06,41.06,0,0,0,5-1.34,34.73,34.73,0,0,1,3.3-1.13,6.93,6.93,0,0,0,2.4-1c.44-.7-3.86-8.68-4.32-8s-15.72,4.84-16.39,4.43a.77.77,0,0,0-.78.18c-.66.55-7,1.67-8.44,1.49-.7-.08-1.26,0-1.26.12s-.64.35-1.42.47-2.52.41-3.87.67c-3.38.65-26.46.65-29.84,0-1.35-.25-3.05-.53-3.77-.6S172,294.16,172,294s-.71-.26-1.44-.18c-1.57.19-8.38-1-8.69-1.48a.39.39,0,0,0-.51-.17c-.34.21-7.37-1.59-12.29-3.15-6.15-2-5.58-2.07-7.38,1.5m215.29,5.64c0,.21-.47.38-1,.38-4,0-9.67,3.59-17.16,10.89l-2.91,2.83,2.53,2.91c3.79,4.35,3.84,4.42,5.27,7.43a15.41,15.41,0,0,1,.65,10.16c-.17.54.05,1.13.68,1.87l.93,1.07,3.06-.49c3.12-.51,6.48-.31,6.48.39,0,.2.16.27.36.15,1-.62,4.28,1.55,8.65,5.72a21.65,21.65,0,0,0,2.75,2.39c.95,0,11.27-11.9,12.6-14.55a6.87,6.87,0,0,1,1-1.61c.12-.06.14-.53.05-1s0-.93.15-.93c.55,0-.06-11.34-.7-13-2.33-6.06-7.63-11.32-12.95-12.85-1.25-.35-2.66-.8-3.14-1a7.45,7.45,0,0,0-2.17-.33c-.72,0-1.3-.17-1.3-.38s-.85-.38-1.89-.38-1.89.17-1.89.38M250.28,307.65c-3.25,2.88-3.67,3-15.86,3.14-6.82.11-10.83,0-10.7-.19s-1.74-.35-4.85-.33a29,29,0,0,0-5.08.25,13.94,13.94,0,0,1-3.59.05c-2.34-.13-3.59-.05-3.59.2s-1.79.45-4.63.54c-7.78.25-12.38,3.58-12.36,8.92,0,3.38,1.32,2.75,3.37-1.63a12.9,12.9,0,0,1,2.08-3.21l1-.94h11.39c12.73,0,12.18-.14,11,2.66-.35.82-1.11,2.77-1.67,4.32-1.39,3.8-3.43,9.23-5.11,13.6-.76,2-1.8,4.78-2.32,6.24a22.58,22.58,0,0,1-1.23,3,13.94,13.94,0,0,0-.95,2.45c-.8,2.49-1.78,4.28-2.07,3.79-.12-.19-.22.28-.23,1.05a10.6,10.6,0,0,1-1,3.47c-.54,1.15-1.31,2.85-1.71,3.78-3,6.86-9.53,7.45-13.55,1.23-2.52-3.92-3.73-.47-1.24,3.56,4.23,6.85,13.05,4.61,17.37-4.41.85-1.77,1.76-3.64,2-4.16a24.5,24.5,0,0,0,1.13-2.92,7.41,7.41,0,0,1,1-2.18,7.68,7.68,0,0,0,1-2.37,20.3,20.3,0,0,1,1-2.91,7.51,7.51,0,0,0,.47-.95c0-.1.24-.67.49-1.25a9,9,0,0,0,.44-1.22c0-.08.76-2.15,1.71-4.6l2.53-6.6c.45-1.18.91-2.09,1-2s.24-.38.29-1a9.14,9.14,0,0,1,.82-2.7c.42-.86,1.2-2.75,1.75-4.21,1.56-4.14,1.86-4.87,2.2-5.4.23-.37,1.59-.49,5.28-.48,2.73,0,6.25-.08,7.8-.18,7.46-.48,12.7-1,13.13-1.38.26-.22.47-.28.47-.14,0,.42,2.61-1.92,3.6-3.23.53-.71.12-2.75-.58-2.86a4.37,4.37,0,0,0-2,1.21m57.14,4.27a10.25,10.25,0,0,0-2,3,30.79,30.79,0,0,1-1.37,3,6.78,6.78,0,0,0-.77,1.91c0,.73-1.55,3.89-1.83,3.72s-.26.3-.28.86a12.83,12.83,0,0,1-1,3.27c-.54,1.24-1.95,4.55-3.15,7.35-3.51,8.25-5.42,11-12.22,17.76-4.73,4.69-10.22,9.18-12.08,9.87-.53.2-1.65.69-2.5,1.1a8.41,8.41,0,0,1-11-4.36c-.73-1.93-.65-8.53.12-8.79a.48.48,0,0,0,.23-.65c-.43-1.12,2.38-4.84,5.74-7.6,5.88-4.82,10-5.53,14.37-2.46,4,2.84,5.18,1.55,1.65-1.86-5.35-5.15-11.09-4.22-18.63,3-2.76,2.65-3.81,4.06-6.75,9-4.5,7.58-14.71,14.93-19.91,14.31-3.36-.4-10-4.81-8.89-5.9.2-.19,2.66-1.57,5.46-3.06a86.18,86.18,0,0,0,10-5.88c2.45-1.63,5.2-4.49,6-6.18.27-.6.58-1,.69-1s.2-.69.2-1.69-.13-1.74-.28-1.64-.29,0-.29-.15c0-2.05-4.09-3.78-7.82-3.32-7.17.9-17.1,10.84-17.1,17.11,0,1.27-.57,2.75-1.87,4.87-.76,1.25-.63,1.5,1,1.85a13.42,13.42,0,0,1,3.64,2.78,19.08,19.08,0,0,0,6.25,4.23c5.87,2.5,9.74,1.11,19.82-7.1,2.22-1.82,2.22-1.82,3.49.69,5.62,11.1,14.05,9.9,29.37-4.17,3.22-3,4.83-3.87,4.2-2.4-.15.36-.69,1.75-1.19,3.09a36.82,36.82,0,0,1-1.44,3.39c-1.39,2.51-2.2,7.59-1.22,7.59.52,0,3-4.58,3.67-6.89a4.14,4.14,0,0,1,.78-1.62,4.62,4.62,0,0,0,.76-1.78,30.09,30.09,0,0,1,1.52-3.89,16.23,16.23,0,0,0,1.1-2.7c0-.68,3.79-6.7,5-8a14.25,14.25,0,0,1,9.18-4.46c3.47-.1,3.64.1,3.62,4,0,3.12-.25,4.12-2.76,12-2.57,8.1-1.76,13.3,2.06,13.3,4.68,0,19-15.54,15.55-16.86-.81-.31-2.79,1.51-5,4.54s-9.31,9.41-10.25,9.22-2.14-2-1.79-2.82a2.34,2.34,0,0,0,.22-1c-.16-.69,3.53-11.78,4.1-12.32a2.69,2.69,0,0,0,.28-1.13c0-.52.19-2.26.33-3.86.44-4.8-1.5-8.23-4.63-8.23-1.55,0-5.77,1-6.42,1.57-1.49,1.23-.55-.77,1.28-2.72,8-8.49,10.25-17.13,5.79-21.91-1.65-1.78-1.4-1.77-3.08-.05M330.35,316c-5.87,6.72-6.79,8.89-6.82,16,0,6,1.65,12.22,3.59,13.42.55.34,3.24-2.62,4.36-4.8s6.07-7.33,8.33-8.74c1.35-.84,1.69-1.33,2.4-3.48l.84-2.51-.81-2.47c-1.11-3.38-6.82-10.68-8.36-10.68-.42,0-1.87,1.33-3.53,3.22M85.59,314.7a.38.38,0,0,0,.51.14c.53-.33,2.85,1.49,3,2.33s-.16.86-2.08,1.23c-1.21.24-2.75.61-3.44.82-.88.28-1.39.27-1.75,0s-.56-.28-.72.16c-.26.66-2.7.81-3.09.19a.43.43,0,0,0-.57-.18,1.23,1.23,0,0,1-1-.15,9,9,0,0,0-1.34-.57c-1.62-.5.32-2.7,3.34-3.77,1.61-.58,6.85-.7,7.18-.17m223.92,4.12c0,4.44-1.57,7.62-6.07,12.53-2.24,2.45-2.65,1.6-1.05-2.17.53-1.25,1.29-3.18,1.69-4.3a13,13,0,0,1,1.11-2.49,9.77,9.77,0,0,0,.92-2c.81-2.28,2.5-5,3-4.87.28.09.42,1.28.4,3.32m28,17.85c-4.15,4.07-4.8,7-1.64,7.36,3.56.41,9.48-7.25,7.46-9.66-1.28-1.53-2.33-1.12-5.82,2.3M349,335.51a3.12,3.12,0,0,0-2.45,2c-1,2-5.87,7.07-7.46,7.84-.69.32-1.89.91-2.69,1.29a13.33,13.33,0,0,0-2.92,2.18L332,350.27l1.78,1.19c2.09,1.39,4.65,2.46,5.89,2.46a2,2,0,0,1,1.12.25,51.46,51.46,0,0,0,9.21,0c.16-.09,1.24-.47,2.38-.84a10.75,10.75,0,0,0,2.64-1.14,14.58,14.58,0,0,1,2.09-1.23,31.53,31.53,0,0,0,4.86-3.92l3.35-3.15-3.83-3.68c-5.25-5-7.82-6-12.5-4.72m-233.55,2.86c2.79.37,5.92,7.86,4.36,10.42a4.41,4.41,0,0,0-.3,1.4c-.14,1.74-3.4,8-5.25,10.05-4.73,5.25-8.78,5.89-13.07,2l-2.06-1.85,0-3.73a18.06,18.06,0,0,1,.54-4.86c.27-.62.52-1.22.55-1.32l.36-.94c.15-.42.47-1.27.7-1.89,1.1-3,5.61-8.51,7.52-9.21a31.82,31.82,0,0,1,6.61-.11m130.43.82c1.65,1.66-3.42,9.06-6.21,9.06a2,2,0,0,0-.94.53c-1,.92-10.28,5.52-11.08,5.52-2.13,0,.88-6.87,4.66-10.63,4.59-4.57,11.27-6.77,13.57-4.48m84.85,7.11c-1,1.13-.75,1.83.32.82s1.21-1.51.62-1.51a2.13,2.13,0,0,0-.94.69" transform="translate(-12.09 -4.54)"/><path id="path2" class="cls-4" d="M169,6.8l-1.14.29,1,0a1.63,1.63,0,0,0,1.25-.33c.13-.21.18-.36.12-.33L169,6.8m21.72,8.31c0,.21.77.38,1.72.38s1.63-.15,1.49-.38a2.81,2.81,0,0,0-1.72-.38c-.82,0-1.49.17-1.49.38m-9.35.26a3.26,3.26,0,0,0,1.32,0c.36-.1.07-.17-.66-.17s-1,.07-.66.17m20.59,0a4.23,4.23,0,0,0,1.51,0c.36-.1,0-.17-.86-.17s-1.12.08-.65.18m18,2.37a1.32,1.32,0,0,0,1.06.35c.8,0,.8,0,.07-.35-1-.44-1.41-.44-1.13,0M229.47,20a2.2,2.2,0,0,0,1.11.46c.51.09.86.05.76-.1a2.11,2.11,0,0,0-1.11-.46c-.51-.1-.86-.05-.76.1m-100.67,10-.94.55.94-.25c1-.29,1.34-.46,1.1-.7-.08-.09-.58.09-1.1.4m-29.37,20c-.46.54-.65.91-.41.83.41-.14,1.72-1.81,1.4-1.8a5.7,5.7,0,0,0-1,1M233.55,65.72c0,1.35.07,1.9.15,1.23a11.15,11.15,0,0,0,0-2.45c-.08-.68-.15-.13-.15,1.22M51.56,93.3c-.54.23-.16.32,1.32.31s1.85-.08,1.13-.31a2.63,2.63,0,0,0-2.45,0M343,95.77a2.27,2.27,0,0,0,.8.57c.63.33.77.32.64,0S343,95.4,343,95.77M67.25,98.45c0,.63,2.88,3.59,2.88,3,0-.32-.08-.51-.17-.42s-.75-.52-1.45-1.36-1.27-1.38-1.26-1.21m4.58,6.74c.24.52.49.9.55.84.23-.23-.34-1.78-.65-1.78s-.13.43.1.94M31.44,116c0,.73.08,1,.17.66a2.94,2.94,0,0,0,0-1.32c-.09-.37-.17-.07-.17.66m158.46-.49a4,4,0,0,0,1.51,0c.36-.09,0-.17-.85-.16s-1.13.08-.66.17m-8.39,10.72a3.17,3.17,0,0,0,1.46.41c.72.09,1.23,0,1.14-.1a3.08,3.08,0,0,0-1.46-.41c-.71-.09-1.22,0-1.14.1m-90.34,6.06a1.55,1.55,0,0,0,.94.76c.54.2.76.18.62-.06a1,1,0,0,0-.75-.37.84.84,0,0,1-.7-.39c-.11-.21-.16-.19-.11.06m169.17,10c-.47.09-.85.3-.85.48,0,.39,1.44,0,1.73-.42.11-.18.15-.31.09-.28s-.5.13-1,.22m-64.58,11.33a6.57,6.57,0,0,0,1.88,0c.47-.09,0-.16-1-.16s-1.42.08-.84.16M52.25,157.13c0,1.56.07,2.19.15,1.42a16.83,16.83,0,0,0,0-2.84c-.08-.78-.15-.14-.15,1.42m281.39,47.5a8.52,8.52,0,0,1-.39.94c-.08.16,0,.28.21.28s.43-.42.53-.94c.21-1.09,0-1.26-.35-.28m-280.1,8.22c.1.52.32.94.48.94.35,0,0-1.45-.38-1.7-.15-.09-.19.25-.1.76m261.59,9.25c-.24.62-.36,1.13-.28,1.13a3.92,3.92,0,0,0,.73-1.13c.32-.63.45-1.14.28-1.14s-.5.51-.73,1.14M249.26,239a3.19,3.19,0,0,0,.83,1c.29.18.29,0,0-.52a3.24,3.24,0,0,0-.83-1c-.29-.18-.29,0,0,.53M87.48,248.26a2.41,2.41,0,0,0,1,1.09c.69.35.73.34.26-.11-.3-.28-.77-.77-1-1.08-.43-.5-.46-.48-.26.1m22.44,7.83c-.78.25-.82.31-.19.33a2.64,2.64,0,0,0,1.32-.33c.66-.43.2-.43-1.13,0m155.24,0c-.52.16.41.2,2.07.1a22.11,22.11,0,0,0,3.18-.33c.3-.26-4.31-.06-5.25.23m-239.85.64a3.35,3.35,0,0,0,1,1.29l1,.91-.94-1.13c-.52-.62-1-1.2-1-1.29s-.09,0-.09.22m64.21,1.45c-.49.52-.73.94-.54.93s1.88-1.88,1.57-1.88a5.53,5.53,0,0,0-1,.95m-67.18.75c-.69.73-1,1.23-.71,1.12.47-.18,2.39-2.44,2.07-2.44a12.15,12.15,0,0,0-1.36,1.32m-2.7,2.72c-.52.54-.7.91-.41.82.47-.16,1.85-1.85,1.5-1.83a6.21,6.21,0,0,0-1.09,1M32,275.21c-4.7,4.71-8.5,8.61-8.44,8.68s4-3.78,8.78-8.55,8.56-8.67,8.44-8.67-4.06,3.84-8.78,8.54m16.77-1.47c0,.24.56.81,1.23,1.27.9.62,1,.65.47.12s-1-1-1.22-1.27-.48-.36-.48-.12m7.94,8.7a2.71,2.71,0,0,0,.55,1.06c.52.7.53.7.33-.12s-.88-1.57-.88-.94m98.4,8a2.2,2.2,0,0,0,1.11.46c.51.1.86.05.76-.1a2.2,2.2,0,0,0-1.11-.46c-.51-.1-.86-.05-.76.1M42.87,293.28a2.66,2.66,0,0,0,1.29.36c.25-.25-.07-.41-1.29-.65l-1.13-.23,1.13.52m56.88.11a1.7,1.7,0,0,0,1.07.85c.29,0,.46,0,.38-.1s-.57-.44-1.06-.85l-.91-.75.52.85m66.63-.3c.73.33,2.75.54,2.43.26a7.26,7.26,0,0,0-1.67-.37c-1-.16-1.28-.13-.76.11m49.67,0c-.78.25-.81.31-.19.33a2.68,2.68,0,0,0,1.33-.33c.66-.43.2-.43-1.14,0m-26.15,2.16a46.44,46.44,0,0,0,4.72,0c1.3-.07.23-.13-2.36-.13s-3.66.06-2.36.13M112,298.77c-.14.23.31.38,1.11.38s1.35-.17,1.35-.38-.5-.38-1.11-.38a2,2,0,0,0-1.35.38m112.37,2.65-.94.3,1,0c.57,0,1-.14,1-.34s-.05-.36-.1-.34l-1,.34m112.2,7.27-.89,1.23,1.19-1.11c1.27-1.18,1.38-1.35.89-1.35-.17,0-.71.55-1.19,1.23M238,310.48l-1.32.28,1.39.05a2.45,2.45,0,0,0,1.63-.33c.25-.41.25-.41-1.7,0m-37,.38c0,.21.35.38.78.38s.68-.17.55-.38a1,1,0,0,0-.78-.38c-.3,0-.55.17-.55.38m26-.1c1.3.08,3.34.07,4.53,0s.12-.14-2.38-.13-3.46.06-2.15.13m14.81,3.12-2.46.25,2.53.06a6,6,0,0,0,2.76-.31c.13-.21.1-.35-.07-.31s-1.41.17-2.76.31m-29,1a3.26,3.26,0,0,0,1.32,0c.36-.1.07-.18-.66-.18s-1,.08-.66.18M68.27,321.29a9.63,9.63,0,0,0,.34,2c.3.34.1-2.83-.21-3.32-.2-.32-.25.19-.13,1.32M72,327.2a3.77,3.77,0,0,0,.6,1.21c.19.21.16-.18-.07-.84-.48-1.38-.93-1.69-.53-.37m303.45,6.37c-.33.62-.32.76.05.64a1.06,1.06,0,0,0,.57-.8c.13-.87-.1-.81-.62.16m-222.73,1.48c-.47.18-.85.41-.85.5,0,.32,1.15,0,1.59-.44s.42-.53-.74-.06m151.2.11c-.6.44-.61.54-.11.73s.65,0,.77-.5c.23-.87.22-.87-.66-.23m-62.24.15a10.09,10.09,0,0,0,2.27,0c.56-.08,0-.15-1.24-.15s-1.71.07-1,.16m95.28.95-.88,1.23,1.09-.94,1.46-1.23c.21-.16.11-.29-.21-.29s-1,.55-1.46,1.23m35.29,1.1-1.49,1.58,1.6-1.29a6.85,6.85,0,0,0,1.6-1.58c0-.47-.16-.34-1.71,1.29m-252,.15c.56.59,1.11,1,1.22.88s-.35-.59-1-1.07l-1.22-.87,1,1.06m161.2-.1c.31.27.8.74,1.08,1,.45.47.46.43.11-.26a2.41,2.41,0,0,0-1.09-1c-.58-.2-.6-.17-.1.26m53.64.64c-.33.61-.3.7.17.52a.9.9,0,0,0,.58-.74c0-.74-.28-.66-.75.22m-226,.6c-1.38.74-1.33,1,.09.42.62-.23,1.13-.56,1.13-.72,0-.37,0-.38-1.22.3m164-.2c0,.22-.17.3-.38.17a1.25,1.25,0,0,0-1,.15c-.53.31-.45.36.45.26s2-1,1.19-1c-.12,0-.22.18-.22.4m-30.89.3c-.3.19,0,.3.81.28s1.22-.16,1.12-.31c-.23-.38-1.32-.36-1.93,0m119.64,1c.72,1,3.11,3.25,3.26,3.11a11.36,11.36,0,0,0-1.85-2c-1.08-1-1.72-1.54-1.41-1.12m-132,1.16a8,8,0,0,0-1.36,1.59c0,.13.68-.43,1.51-1.24a17.43,17.43,0,0,0,1.51-1.59c0-.31-.42,0-1.66,1.24m111.19.35c-.73.88-.21,1.05.57.19.38-.42.51-.76.3-.76a1.53,1.53,0,0,0-.87.57m-76.7,1.79c-.32,1.06-.24,1.42.24,1,.3-.25.44-.6.33-.78s-.51-.45-.57-.24m75,1.51-1.11,1.23,1.23-1.11a8.8,8.8,0,0,0,1.23-1.23c0-.29-.31,0-1.35,1.11m24.47,1.3c-1,1-1.44,1.52-1,1.23,1-.74,3.29-3,3-3a12.63,12.63,0,0,0-2,1.77M334.47,347a6.29,6.29,0,0,0-.94,1c-.41.56-.28.52.48-.16.92-.82,1.2-1.17.93-1.15a1.77,1.77,0,0,0-.47.28m-274.67.75a9.83,9.83,0,0,1-.39.94c-.08.15.08.19.36.09a1.06,1.06,0,0,0,.5-.94c0-.93-.16-1-.47-.09M56,351.09c0,1.24.07,1.71.16,1a10.09,10.09,0,0,0,0-2.27c-.09-.57-.15,0-.15,1.24M138.81,350c-.62.52-.95.93-.73.93a3,3,0,0,0,1.3-.94c1.12-1.19.89-1.18-.57,0m88.57,2.28c-.46,1.21-.48,1.79,0,1.52s.81-2.49.54-2.49a2.57,2.57,0,0,0-.5,1m125.78,1.16-.94.55.94-.25c1-.28,1.34-.46,1.1-.69-.08-.09-.58.09-1.1.39m-214,1.27c-.59.62-1,1.19-.92,1.26s.65-.43,1.24-1.13c1.33-1.56,1.14-1.65-.32-.13m-79.62.39c.29,1.11.79,1.26.58.17-.1-.51-.32-.93-.48-.93s-.21.34-.1.76m34.32,3.4c-.6.62-1,1.12-.79,1.12a6.8,6.8,0,0,0,2.08-2.09c0-.3-.16-.17-1.29,1m67.25,1c-.8.89-1.32,1.62-1.13,1.62.36,0,3-3,2.73-3.16a8.09,8.09,0,0,0-1.6,1.54m-99.57-.9a8.29,8.29,0,0,0,1.13,1.2c1.36,1.31,1.51,1.08.21-.32-.83-.89-1.34-1.23-1.34-.88m25.36.73a1.59,1.59,0,0,1-.89.47.72.72,0,0,0-.59.51c-.22.64,1,0,1.79-.86.58-.71.36-.79-.31-.12m88.33,2.36a1.6,1.6,0,0,1-1,.57c-.29,0-.52.17-.52.39s.23.27.69,0c.71-.38,1.82-1.54,1.48-1.54a1.76,1.76,0,0,0-.66.56M81,362.34a.46.46,0,0,0,0,.54c.13.13.23,0,.23-.23s.13-.38.3-.28a1,1,0,0,0,.85-.15c.4-.25.32-.32-.33-.27a1.67,1.67,0,0,0-1.08.39M199.76,366l-.89.74,1-.46c.57-.26,1-.59,1-.75,0-.43-.21-.35-1.18.47" transform="translate(-12.09 -4.54)"/><path id="path3" class="cls-5" d="M188.48,15.11c0,.21.51.38,1.13.38s1.14-.17,1.14-.38-.51-.38-1.14-.38-1.13.17-1.13.38m5.48,0a1.92,1.92,0,0,0,1.34.38c.61,0,1.11-.17,1.11-.38s-.6-.38-1.34-.38-1.25.15-1.11.38m-16.62.38-2.27.25,2.08,0a12.82,12.82,0,0,0,3-.27c1.15-.37.48-.37-2.83,0m29,.27a9,9,0,0,0,2.07,0c.58-.09.11-.16-1-.16s-1.61.07-1,.16m83.19,38.63a10.74,10.74,0,0,0,1.66,1.51c.11,0-.47-.68-1.28-1.51a10.57,10.57,0,0,0-1.67-1.51,6.82,6.82,0,0,0,1.29,1.51m3.78,3.78A10.74,10.74,0,0,0,295,59.68a6.82,6.82,0,0,0-1.29-1.51A10.74,10.74,0,0,0,292,56.66c-.11,0,.47.68,1.29,1.51M87.42,62l-1.11,1.23,1.23-1.11c1.14-1,1.4-1.35,1.1-1.35A9.74,9.74,0,0,0,87.42,62m146.1.09c0,.84.08,1.13.18.66a4.23,4.23,0,0,0,0-1.51c-.1-.36-.17,0-.17.85m.12,5.5a19.82,19.82,0,0,0-.1,3.62A12.44,12.44,0,0,0,234,68a19.82,19.82,0,0,0,.1-3.62,12.44,12.44,0,0,0-.45,3.26M152.2,70.87c-.21.55-.31,1.07-.22,1.16s.33-.37.55-1c.49-1.41.2-1.55-.33-.16m-2.55,14.68a21,21,0,0,0,.26,4.12c.15.39.22-.88.14-2.83-.19-4.81-.38-5.43-.4-1.29m83.14.57c0,1.14.07,1.61.15,1a8,8,0,0,0,0-2.08c-.08-.57-.15-.1-.15,1m98.94,7.07a6.61,6.61,0,0,0,1.89,0c.47-.09,0-.16-1-.15s-1.42.07-.85.16M65.92,97.84c.69.76,1.32,1,1.31.46,0-.16-.45-.49-1-.74-1-.45-1-.44-.32.28m264.61,37.73c-.36.23.06.33,1.25.31s1.59-.14,1.29-.34a2.75,2.75,0,0,0-2.54,0m-282.37,9.1a2.2,2.2,0,0,0,1.12.46c.51.1.86.06.76-.1a2.13,2.13,0,0,0-1.11-.45c-.51-.1-.86-.06-.77.09m284.3.45c-.32.32-.42,2.17-.37,6.33l.08,5.87.2-6,.21-6,1.7-.22,1.7-.23-1.53-.06a3.46,3.46,0,0,0-2,.4m9.48,1.62c0,1,.08,1.42.16.85a6.63,6.63,0,0,0,0-1.89c-.09-.47-.16,0-.16,1m-290.19-.38c0,.32.17.57.37.57s.38-.25.38-.57-.17-.56-.38-.56-.37.25-.37.56m55.33,2.46a4.13,4.13,0,0,0,1.32.32c.36,0,.29-.12-.19-.32a4,4,0,0,0-1.32-.33c-.35,0-.28.13.19.33M342,160.34c0,1.45.07,2,.15,1.22a14.65,14.65,0,0,0,0-2.65c-.09-.67-.16,0-.15,1.43m-12.07,20.37a2.52,2.52,0,0,0-.06,1.23c.09.43.22.22.34-.54.21-1.29.07-1.61-.28-.69M304.6,254.3l-1.11,1.22,1.23-1.11a9.74,9.74,0,0,0,1.23-1.22c0-.29-.31,0-1.35,1.11m-193.55,1.79c-.39.24-.09.28.94.12,1.87-.28,2.19-.5.73-.49a3.75,3.75,0,0,0-1.67.37m155.89.27a13.75,13.75,0,0,0,2.65,0c.78-.08.23-.15-1.22-.16s-2.1.07-1.43.15M45.41,270.66c.56.58,1.11,1,1.22.87s-.35-.59-1-1.07l-1.22-.87,1,1.07m203,0a2.43,2.43,0,0,0-.09,1.17c.09.09.28-.29.42-.85a2.15,2.15,0,0,0,.09-1.16c-.09-.09-.28.29-.42.84m-113.43,6.39c0,.84.08,1.13.17.66a4,4,0,0,0,0-1.51c-.09-.36-.17,0-.16.85m113.27,5.86a4.11,4.11,0,0,0,.33,1.32c.2.48.32.55.32.19a4.34,4.34,0,0,0-.32-1.32c-.21-.48-.33-.55-.33-.19m-64.72,12.36a19,19,0,0,0,3,0c.77-.08,0-.15-1.62-.15s-2.29.07-1.4.15m14.73,0a19,19,0,0,0,3,0c.77-.08,0-.15-1.62-.15s-2.29.07-1.4.15m-7.57.38a21.5,21.5,0,0,0,3.21,0c.88-.08.16-.14-1.6-.14s-2.49.06-1.61.14m-157.19.62a1.52,1.52,0,0,0,.94.73c.87.23.61-.33-.42-.88-.57-.3-.68-.27-.52.15m144.1,7.93a10.17,10.17,0,0,0,1.85.36c1.14.15,1.45.11,1-.11-.72-.32-3.13-.54-2.8-.25m24.71,6.66a1.6,1.6,0,0,0,1.17.38c.54,0,.85-.17.71-.38a1.57,1.57,0,0,0-1.17-.38c-.54,0-.85.17-.71.38m35.41,3.28a2.94,2.94,0,0,0,1.32,0c.36-.09.07-.17-.66-.17s-1,.08-.66.17M215,314.9a3.31,3.31,0,0,0,1.33,0c.36-.1.06-.18-.66-.18s-1,.08-.67.18m-25.67,5.4c0,.94.07,1.32.16.85a5.39,5.39,0,0,0,0-1.7c-.09-.47-.16-.08-.16.85m155.24,5.48c0,1,.08,1.42.17.84a7,7,0,0,0,0-1.89c-.09-.46-.16,0-.16,1m29.15,9.73-1.11,1.22,1.22-1.11c1.15-1,1.4-1.34,1.11-1.34a9,9,0,0,0-1.22,1.23M110.15,335c-.11.18.31.24.92.15a2.48,2.48,0,0,0,1.11-.31c0-.29-1.85-.14-2,.16m197.69-.09c1.27.28,4.07.33,3.9.07a5.39,5.39,0,0,0-2.32-.24c-1.18,0-1.89.1-1.58.17M82.25,336.82a10.09,10.09,0,0,0,2.27,0c.57-.08,0-.15-1.23-.15s-1.72.07-1,.16m198.74.6c1,1.06,1.17,1.19,1.15.73,0-.16-.47-.61-1-1l-1-.72.91,1M63.25,342.68l-1.49,1.61,1.6-1.5c1.5-1.39,1.78-1.71,1.5-1.71a15.4,15.4,0,0,0-1.61,1.6m198.67,3.18c-.58.76-.86,1.27-.63,1.12.49-.3,2.12-2.5,1.86-2.5a7.11,7.11,0,0,0-1.23,1.38m-14.66-.07c-.48.73-.5.88-.08.73a1.54,1.54,0,0,0,.72-.94c.25-1,.09-.92-.64.21M59,351.47c0,.52.15.94.33.94s.33-.33.33-.74a1.24,1.24,0,0,0-.33-.93c-.18-.12-.33.21-.33.73M288,354l-1.11,1.23,1.16-1c.64-.58,1.31-.92,1.48-.76s.2.08.05-.18c-.36-.63-.3-.65-1.58.75M99.26,357.33c-.1.64,0,1.24.14,1.35s.32-.41.32-1.15c0-1.65-.24-1.75-.46-.2m29.93,2.05c-.48.52-1,.86-1.16.76s-.38.08-.5.4-.08.5.43.22c.69-.37,2.61-2.31,2.29-2.31a4.48,4.48,0,0,0-1.06.93m70.62,2.28a1.58,1.58,0,0,1-1,.57c-.29,0-.52.17-.52.39s.23.27.69,0c.71-.38,1.82-1.54,1.48-1.54a1.76,1.76,0,0,0-.66.56m-37,1.57c-1.18,1.22-1.2,1.29-.26.69a4.72,4.72,0,0,0,1.43-1.37c.52-1,.35-.87-1.17.68m155.21.41c-.5.56-.64.81-.31.56s.74-.33.91-.17.2.08.06-.17,0-.5.41-.57.51-.23.25-.4-.83.2-1.32.75m-219.79-.16a9.07,9.07,0,0,0,1.22,1.23l1.23,1.11-1.11-1.23c-1-1.14-1.34-1.4-1.34-1.11m-25.4.53a9.56,9.56,0,0,0,2.27,0c.56-.09,0-.16-1.24-.15s-1.71.07-1,.15m163.64,3.88c0,.21.6.38,1.34.38s1.25-.15,1.11-.38a2,2,0,0,0-1.34-.37c-.61,0-1.11.17-1.11.37" transform="translate(-12.09 -4.54)"/><path id="path4" class="cls-6" d="M178.19,5.93a4.24,4.24,0,0,0,1.51,0c.36-.1,0-.17-.85-.17s-1.13.08-.66.17m26.44,0a4.24,4.24,0,0,0,1.51,0c.36-.1,0-.17-.85-.17s-1.13.08-.66.17m27.92,72.51a3,3,0,0,0,0,2.53c.16.1.29-.48.28-1.3s0-1.48,0-1.48a1.33,1.33,0,0,0-.28.25m-73.06,7.49c0,.83.08,1.13.17.66a4,4,0,0,0,0-1.51c-.09-.37-.16,0-.16.85M51.56,136a1.57,1.57,0,0,0,1.13.37,1.54,1.54,0,0,0,1.13-.37c.14-.23-.31-.38-1.13-.38s-1.27.15-1.13.38m281,15.11c0,3.22.06,4.53.13,2.92s.07-4.24,0-5.85-.13-.29-.13,2.93M51.75,147.45a1.05,1.05,0,0,0,.37.8c.21.13.38,0,.38-.33a1,1,0,0,0-.38-.8c-.2-.13-.37,0-.37.33M342,153.16c0,2.7.06,3.76.13,2.35s.07-3.62,0-4.91-.13-.14-.13,2.56m-9.84,6.8c0,1.66.07,2.3.15,1.41a19,19,0,0,0,0-3c-.09-.78-.15,0-.15,1.61M232.86,159c-1,.26-1,.29-.19.3a4.85,4.85,0,0,0,1.7-.3c.93-.4.06-.4-1.51,0m108.68,4.91c0,.72.08,1,.17.66a2.94,2.94,0,0,0,0-1.32c-.09-.37-.17-.07-.17.66m-9.44,1.51c0,.73.08,1,.17.66a2.94,2.94,0,0,0,0-1.32c-.09-.37-.17-.07-.17.66M53,172.24c0,.72.07,1,.17.66a2.94,2.94,0,0,0,0-1.32c-.1-.37-.17-.07-.17.66m36.17,78.3a8.8,8.8,0,0,0,1.23,1.23l1.23,1.11-1.11-1.23c-1-1.14-1.35-1.4-1.35-1.11m23.42,5.53c-.73.15.94.23,3.71.18a35.39,35.39,0,0,0,5.26-.31c.3-.31-7.32-.19-9,.13m-85.57,3a14.14,14.14,0,0,0,1.62,1.57c.32,0-1.28-1.81-2.15-2.44-.57-.41-.35-.05.53.87m65.64,16.3c0,.73.08,1,.17.67a3,3,0,0,0,0-1.33c-.09-.36-.17-.06-.17.66m197.2,2.27c0,1.56.07,2.2.15,1.42a16.83,16.83,0,0,0,0-2.84c-.08-.78-.15-.14-.15,1.42m-42.34-.76c0,.73.08,1,.17.67a3,3,0,0,0,0-1.33c-.09-.36-.17-.06-.17.66m-118.71,15.4-1.3,1.41,1.42-1.3c1.31-1.21,1.59-1.53,1.3-1.53a12.56,12.56,0,0,0-1.42,1.42m51.48,3a3.31,3.31,0,0,0,1.33,0c.36-.1.06-.18-.66-.18s-1,.08-.67.18m22.67,0a3.26,3.26,0,0,0,1.32,0c.36-.1.07-.18-.66-.18s-1,.08-.66.18m-16.8.39a10,10,0,0,0,2.26,0c.57-.08,0-.15-1.23-.15s-1.71.07-1,.16m10.19,0a10.09,10.09,0,0,0,2.27,0c.57-.08,0-.15-1.23-.15s-1.71.07-1,.16m35.41,3.77c-1.16.28-1.51.79-.4.58a2.13,2.13,0,0,0,1.18-.52c.11-.18.15-.31.09-.29s-.46.13-.87.23M189,304.72c2.25.07,5.82.07,7.93,0s.29-.12-4.08-.12-6.09,0-3.85.12m46.16,9.54c-1,.41,0,.41,1.32,0,.76-.24.8-.31.19-.31a4.24,4.24,0,0,0-1.51.31m-143,1.32a8.4,8.4,0,0,0,1.47,1.32c.11,0-.38-.59-1.09-1.32a8.4,8.4,0,0,0-1.47-1.32c-.1,0,.39.59,1.09,1.32m109.26-1c2.44.07,6.43.07,8.87,0s.45-.12-4.44-.12-6.87.06-4.43.12m25.11,0a24.56,24.56,0,0,0,3.21,0c.89-.08.17-.15-1.6-.15s-2.49.07-1.61.15m86.31,3.87c0,.73.07,1,.17.67a3.31,3.31,0,0,0,0-1.33c-.1-.36-.17-.06-.17.66m37.93,14.83a3,3,0,0,0,2.52,0c.1-.16-.47-.28-1.26-.28s-1.36.12-1.26.28m-139.65,2c-.21.55-.31,1.07-.22,1.16s.34-.37.56-1c.49-1.41.19-1.55-.34-.16m-98.47-.35a3.26,3.26,0,0,0,1.32,0c.37-.1.07-.18-.66-.18s-1,.08-.66.18m-34,1.9a7,7,0,0,0,1.89,0c.47-.09,0-.16-1-.16s-1.42.08-.85.17M307.32,357.9a3.84,3.84,0,0,0-.21,1.24c0,.35.19.13.37-.48.36-1.19.23-1.78-.16-.76m-79.56,1.8a8.8,8.8,0,0,0,1.23,1.23l1.23,1.11-1.11-1.23c-1-1.14-1.35-1.4-1.35-1.11M72.81,364.38a5.32,5.32,0,0,0,1.69,0c.47-.09.09-.16-.85-.16s-1.31.07-.84.16m212.46,1.44c0,.83.08,1.12.17.65a4,4,0,0,0,0-1.51c-.09-.36-.16,0-.16.86" transform="translate(-12.09 -4.54)"/><path id="path5" class="cls-7" d="M180,40.62c-.94.45-1,.5-.19.31,1.07-.26,2.28-.87,1.7-.86a5.8,5.8,0,0,0-1.51.55m-12.53,4.45c-1.93.71-1.93,1.06,0,.41a6.57,6.57,0,0,0,1.76-.76c0-.23-.44-.14-1.77.35m52.38,2.46a7.07,7.07,0,0,0,1.51.6c.66.18.77.15.38-.1a7.07,7.07,0,0,0-1.51-.6c-.66-.17-.77-.15-.38.1m10.29,3.95c.88.72.84,1.29-.12,1.6-.43.14-.7.33-.6.43.33.33,1.76-.64,1.76-1.2,0-.29-.38-.72-.85-1-.77-.37-.78-.36-.19.12m-80.55,1.71a6.86,6.86,0,0,0,1.52.61c.65.17.77.14.37-.1a7.07,7.07,0,0,0-1.51-.6c-.65-.18-.77-.15-.38.09m13.6,4.91a6.57,6.57,0,0,0,1.51.61c.66.17.78.14.38-.1a7.07,7.07,0,0,0-1.51-.6c-.66-.18-.77-.15-.38.09m20,7.18a6.58,6.58,0,0,0,1.51.6c.66.18.77.15.38-.09a6.57,6.57,0,0,0-1.51-.61c-.66-.17-.77-.14-.38.1m25.5,4.8c-.95.45-1,.51-.19.31,1.07-.26,2.27-.87,1.7-.86a5.8,5.8,0,0,0-1.51.55m-44.29,1c-.53.67-1.28,2.17-1.09,2.17a5.34,5.34,0,0,0,.95-1.32c.78-1.33.85-1.75.14-.85M184,74.72a6.57,6.57,0,0,0,1.51.61c.65.17.77.14.38-.1a6.87,6.87,0,0,0-1.52-.6c-.65-.18-.77-.15-.37.09m11.52.27c-.95.45-1,.51-.19.32,1.07-.27,2.27-.88,1.7-.87a5.8,5.8,0,0,0-1.51.55M161.33,77.1a2.94,2.94,0,0,0-.28,1.36c.08.08.34-.4.57-1.07A3.11,3.11,0,0,0,161.9,76c-.08-.08-.34.4-.57,1.07m59.33,2.41a7.18,7.18,0,0,0,.3,1.7c.24.75.31.79.31.19a6.67,6.67,0,0,0-.31-1.7c-.24-.75-.3-.79-.3-.19m.79,4.91c0,1,.07,1.42.16.84a6.57,6.57,0,0,0,0-1.88c-.09-.47-.16,0-.16,1m-61.58.38c0,.83.08,1.12.17.65a4,4,0,0,0,0-1.51c-.09-.36-.17,0-.16.86m61.58,3.77c0,1,.07,1.42.16.85a6.64,6.64,0,0,0,0-1.89c-.09-.46-.16,0-.16,1m-60.54,5.94a10.16,10.16,0,0,0,1.33,2.94c.1,0-.08-.63-.4-1.4-.56-1.35-.93-2-.93-1.54m57.22,4.83c-.32.62-.5,1.13-.4,1.13a3.13,3.13,0,0,0,.78-1.13c.32-.62.5-1.13.39-1.13a3.31,3.31,0,0,0-.77,1.13m-54.63.94a9.53,9.53,0,0,0,1,1.51l.61.76-.37-.76a9.65,9.65,0,0,0-1-1.51l-.62-.75.37.75m4.39,5.86a11.08,11.08,0,0,0,1.67,1.51,6.82,6.82,0,0,0-1.29-1.51,10.74,10.74,0,0,0-1.66-1.51c-.11,0,.47.68,1.28,1.51m44.39.82c-1.45,1.34-1.62,1.58-.57.78,1.4-1.06,3.15-2.76,2.8-2.72a24.3,24.3,0,0,0-2.23,1.94m-167.35.22-1.3,1.41,1.41-1.3a14.05,14.05,0,0,0,1.42-1.41c0-.29-.32,0-1.53,1.3m15.32.09a10.74,10.74,0,0,0,1.66,1.51,6.48,6.48,0,0,0-1.29-1.51A10.74,10.74,0,0,0,59,105.76c-.11,0,.47.68,1.29,1.51m264.92-.09c-1.2,1.33-2,2.36-1.78,2.36a13.17,13.17,0,0,0,1.57-1.7c1.56-1.87,1.7-2.31.21-.66M42.85,110c-.33.64-.54,1.23-.45,1.32s.43-.45.77-1.17c.78-1.63.51-1.75-.32-.15m129.58-.22a9.53,9.53,0,0,0,1.51,1l.75.37-.75-.62a10.43,10.43,0,0,0-1.51-1l-.76-.37.76.61m-109.5,1.88c.31,1.39.53,1.7.52.73a2.71,2.71,0,0,0-.39-1.29c-.28-.42-.31-.26-.13.56M322.05,113a7.65,7.65,0,0,0,.07,3.76c.14.36.26-.53.26-2,0-2.93,0-3-.33-1.78m21.41,2c0,1.25.07,1.71.16,1a10.09,10.09,0,0,0,0-2.27c-.08-.57-.15,0-.15,1.23m-279.94-.37a13.76,13.76,0,0,1-.44,2.81,3.25,3.25,0,0,0-.21,1.45c.33.33,1-3.06.86-4.38l-.15-1.39-.06,1.51m121.18.18c.93.3,4.43.51,4.13.25a16,16,0,0,0-2.62-.35c-1.47-.12-2.07-.08-1.51.1m8.6.27a5.32,5.32,0,0,0,1.69,0c.47-.09.09-.16-.84-.16s-1.32.07-.85.16m148.8,4.84c-.35.72-.56,1.32-.46,1.32a5.56,5.56,0,0,0,1.23-2.49c-.08-.08-.43.45-.77,1.17M60,122.66l-1.3,1.42,1.41-1.3c1.32-1.21,1.59-1.53,1.3-1.53A12.36,12.36,0,0,0,60,122.66m278.77.89c-.63.51-.69.64-.19.38,1.23-.64,1.92-1.16,1.51-1.16a3.52,3.52,0,0,0-1.32.78M57,124.65c-.72.39-1.18.73-1,.74a6.7,6.7,0,0,0,2.54-1.32c0-.25,0-.24-1.52.58m270.83-.16a3.81,3.81,0,0,0,2.15.78c.08-.09-.37-.34-1-.56s-1.15-.32-1.15-.22m8.68.14c-.31.17-1,.5-1.51.72-.9.39-.89.4.19.17a6.2,6.2,0,0,0,1.88-.74c.81-.55.37-.67-.56-.15M112.84,266.18a5.39,5.39,0,0,0,1.7,0c.47-.09.09-.17-.85-.17s-1.31.08-.85.17m156,0a5.39,5.39,0,0,0,1.7,0c.47-.09.08-.17-.85-.17s-1.32.08-.85.17m8,3.37A6.66,6.66,0,0,0,278,271l.86.75-.85-1.22c-1-1.42-1.85-2.1-1.26-1m-17.94,7.31c0,1.15.07,1.62.16,1a9,9,0,0,0,0-2.07c-.09-.57-.16-.11-.16,1m-156,.19c0,.84.09,1.13.18.66a4.23,4.23,0,0,0,0-1.51c-.1-.36-.17,0-.17.85m177.53.38c0,.83.08,1.13.17.66a4,4,0,0,0,0-1.51c-.09-.36-.16,0-.16.85m-3.14,7.27-1.3,1.42,1.42-1.3c1.31-1.21,1.59-1.53,1.3-1.53a12.92,12.92,0,0,0-1.42,1.41m-10.93,2.72a2.6,2.6,0,0,0,1.29.39c1,0,.66-.21-.72-.52-.83-.18-1-.15-.57.13m5.66,0c-.75.24-.79.31-.18.31a4.33,4.33,0,0,0,1.51-.31c1-.41,0-.41-1.33,0" transform="translate(-12.09 -4.54)"/><path id="path6" class="cls-8" d="M188.29,4.91c.3.48,6.62.48,7.37,0,.38-.25-.74-.37-3.52-.37-2.63,0-4,.13-3.85.37m-7.83.64a4.24,4.24,0,0,0,1.51,0c.36-.1,0-.17-.86-.17s-1.12.09-.65.17m21.91,0a4.25,4.25,0,0,0,1.51,0c.36-.1,0-.17-.86-.17s-1.12.09-.65.17M164.31,7.24c-.63.27-.77.46-.44.59A1.3,1.3,0,0,0,165,7.41c.7-.7.62-.72-.68-.17m1.51-.06c0,.2.34.37.75.37s.76-.17.76-.37-.34-.38-.76-.38-.75.17-.75.38m51.18,0c-.13.2.1.37.52.37a1.34,1.34,0,0,0,1-.37c.13-.21-.11-.38-.52-.38a1.28,1.28,0,0,0-1,.38m2.45.37a2.4,2.4,0,0,0,1.14.37c.5,0,.5,0,0-.37a2.57,2.57,0,0,0-1.14-.36c-.5,0-.5,0,0,.36m-64.59,2c0,.17.34.3.76.3s.75-.16.75-.35-.34-.33-.75-.3-.76.19-.76.35M228,9.44a1,1,0,0,0,.8.38c.31,0,.46-.17.33-.38a1,1,0,0,0-.8-.38c-.31,0-.46.17-.33.38m-47.12,6.31a5.39,5.39,0,0,0,1.7,0c.47-.09.09-.16-.85-.16s-1.32.07-.85.16m21.53,0a5.39,5.39,0,0,0,1.7,0c.47-.09.09-.16-.85-.16s-1.32.07-.85.16m-27,.37a3,3,0,0,0,1.33,0c.36-.09.06-.17-.67-.17s-1,.08-.66.17m32.68,0a4,4,0,0,0,1.51,0c.36-.09,0-.17-.85-.16s-1.13.08-.66.17m-75.66,1.09c-.67.54-.68.58,0,.37a4.54,4.54,0,0,1,1-.21.37.37,0,0,0,.35-.38c0-.55-.5-.47-1.34.22m-4.7,2c-.54.15-.77.37-.53.52a1.22,1.22,0,0,0,1.13-.29c.79-.6.76-.61-.6-.23m27.57.8c0,.47.4.47,1.13,0,.46-.3.41-.37-.28-.37-.47,0-.85.16-.85.37m72.9,0c0,.18.43.41,1,.51.76.15.86.08.52-.33-.48-.58-1.47-.7-1.47-.18m-105.89,1.8c-.49.5-.24.81.51.62.41-.11.75-.35.75-.54,0-.39-.89-.44-1.26-.08m24.85.68c-.41.31-.53.56-.29.57a.87.87,0,0,0,.68-.35.71.71,0,0,1,.84-.12c.41.15.52.09.34-.21-.36-.58-.69-.56-1.57.11m88.59-.18c0,.21.26.38.57.38s.57-.17.57-.38-.26-.37-.57-.37-.57.17-.57.37m-115.58.95c-.52.3-.77.54-.56.54a4.16,4.16,0,0,0,1.32-.54c.52-.3.77-.54.56-.54a4.16,4.16,0,0,0-1.32.54m21.06,1.2c-.36.1-.66.33-.66.53,0,.47.65.44,1,0a.43.43,0,0,1,.59-.16c.19.12.35,0,.35-.19,0-.41-.12-.42-1.23-.14m-26.51,1.83c-.4.3-.65.62-.56.71s.56-.16,1.05-.56c1-.84.6-1-.49-.15m139.93,3.49c0,.48,1.83,1.4,2.15,1.08.09-.09-.23-.29-.72-.44a2.44,2.44,0,0,1-1.15-.7c-.19-.29-.28-.27-.28.06M125.5,31.94c-1.79,1.07-2.2,1.63-.57.77,1.14-.6,2.66-1.71,2.36-1.72a10.83,10.83,0,0,0-1.79,1m-19.17-.18a14.51,14.51,0,0,1-1.14.95c-.62.47-.55.47.48,0,.67-.33,1.22-.76,1.22-1,0-.45-.07-.44-.56,0M103,34.22c-.14.36-.06.54.22.44.56-.19.87-1,.38-1-.21,0-.48.27-.6.6M176.23,34c-.58.22-.63.35-.21.6s.57.16.66-.1a.5.5,0,0,1,.68-.22c.3.12.54,0,.54-.21,0-.47-.6-.5-1.67-.07m26.6.41c0,.21.26.38.57.38s.57-.17.57-.38-.26-.38-.57-.38-.57.17-.57.38m60.28.14a1.49,1.49,0,0,0,.94.73c.87.23.6-.33-.42-.87-.57-.31-.68-.28-.52.14M100.18,36.13a2.53,2.53,0,0,0-.9,1c-.39.77-.36.76.57-.1a6.78,6.78,0,0,0,1-1c0-.14,0-.14-.67.12m69,.53c0,.22-.17.3-.38.17s-.38,0-.38.2.26.34.6.21A3.61,3.61,0,0,1,170,37a.37.37,0,0,0,.35-.38c0-.21-.26-.38-.57-.38s-.56.18-.56.4m39.86-.06a4.06,4.06,0,0,0,1.31.58c.9.24.91.23.21-.33s-2.15-.85-1.52-.25m74.58-.19a3.69,3.69,0,0,0,1,.78c.94.62,1,.62.55-.15s-1.53-1.14-1.53-.63m-186.12,2a2.46,2.46,0,0,0-.9,1c-.4.76-.36.76.57-.1a6.16,6.16,0,0,0,1-1c0-.14,0-.14-.67.13m189.34.51c.37.41.76.67.86.57.26-.25-.68-1.33-1.16-1.33-.21,0-.08.34.3.76m-124.82.53c-.36.44-.3.5.34.34.42-.12.77-.36.77-.54,0-.51-.61-.4-1.11.2M289,40.52a8.59,8.59,0,0,0,1.18,1.24c1,.93,1.11,1,.75.27S289,40.1,289,40.52M93.07,42.36c-.71.8-.71.81.11.38s1.48-1.19.95-1.19a2.47,2.47,0,0,0-1.06.81m55.92,2c-.67.55-.68.58,0,.38a4.67,4.67,0,0,1,1-.22.37.37,0,0,0,.35-.38c0-.54-.5-.46-1.34.22m79.91-.23c0,.17.34.39.75.5s.76.06.76-.1-.34-.39-.76-.5-.75-.06-.75.1m48.57.17c.18.47,2.79,2.31,2.79,2a11.63,11.63,0,0,0-1.5-1.32c-.83-.67-1.41-1-1.29-.65M106,44.44c-.46.46-.26.87.32.64.31-.11.56-.36.56-.55,0-.4-.52-.45-.88-.09m189.11,1.83a11.21,11.21,0,0,0,2,1.7c.14,0-.49-.76-1.41-1.7a8.14,8.14,0,0,0-2-1.7c-.21,0,.43.76,1.4,1.7m-191.3.16c-.49.39-.79.82-.67.94s.61-.2,1.1-.72c1-1.12.82-1.24-.43-.22M84.68,50.31a43.65,43.65,0,0,0-4.23,4.54,37,37,0,0,0,4.36-4.08A53.76,53.76,0,0,0,89,46.23a51,51,0,0,0-4.36,4.08m58.57-3.82c-.93.35-1.13.73-.38.72.6,0,1.64-.66,1.41-.88s-.56,0-1,.16m90.93,0a.37.37,0,0,0,.35.38,3.24,3.24,0,0,1,.94.23c.34.12.6,0,.6-.22s-.17-.33-.38-.2-.37.05-.37-.17-.26-.4-.57-.4-.57.17-.57.38m46.46.35c0,.2.56.73,1.23,1.2l1.23.84L282,47.66c-1.2-1.29-1.35-1.39-1.35-.85m-179,1.54c-.52.4-.76.74-.54.75a2.24,2.24,0,0,0,1.1-.75c.86-1,.65-1-.56,0M241,49.12c0,.23.17.3.38.17s.38,0,.38.17a.41.41,0,0,0,.42.4c.29,0,.28-.18,0-.57-.55-.66-1.14-.74-1.14-.17m58.74,1.49c1.16,1.49,3.72,4,3.26,3.17a16.62,16.62,0,0,0-2.2-2.41c-1-.94-1.47-1.28-1.06-.76m-14.92-.28a7.75,7.75,0,0,0,1.13,1.23c.62.59,1.13.89,1.13.66s-.51-.78-1.13-1.23-1.13-.74-1.13-.66m-187.73,2c-.7.73-1.1,1.33-.89,1.33a4.88,4.88,0,0,0,1.6-1.33c.66-.72,1.06-1.32.89-1.32a6.14,6.14,0,0,0-1.6,1.32m35.51.5a2.72,2.72,0,0,0,.6,1.41c.54.68.57.68.37.05a5.75,5.75,0,0,1-.22-1.42c0-.4-.17-.73-.37-.73s-.38.31-.38.69m112.75,2c-.38.41-.5.75-.26.75s.6-.34.82-.75.34-.76.26-.76a3.36,3.36,0,0,0-.82.76m58.95.75c.42.52,1.35,1.64,2.06,2.49l2.19,2.58c.48.58,1,1,1.08.85s-.25-.68-.8-1.27c-3.5-3.74-5.18-5.46-4.53-4.65M91.08,58.35a9.26,9.26,0,0,0-1.55,2c0,.16.39-.14.85-.68a26.17,26.17,0,0,1,2-2c.62-.56.94-1,.71-1a6.64,6.64,0,0,0-2,1.69m148.22-.59c-.37.6.33.74.85.18s.38-.53-.08-.53a1,1,0,0,0-.77.35m54.18,1.12c0,.42,1.1,1.34,1.32,1.12s-.16-.46-.57-.81-.75-.49-.75-.31m1.89,2a9.61,9.61,0,0,0,1.2,1.23l1.2,1.11L296.92,62c-.69-1-1.55-1.62-1.55-1.11m-145.23.74a6.71,6.71,0,0,0,1.7.83c.91.26.91.25.19-.28a6.53,6.53,0,0,0-1.7-.82c-.9-.27-.91-.26-.19.27M87,62.8c-1.65,1.74-2,2.57-.59,1.22,1.07-1,2.19-2.46,1.86-2.45A12.63,12.63,0,0,0,87,62.8m140.85-.69a2.52,2.52,0,0,1-.87.65c-.49.17-.1,1.45.44,1.45.2,0,.26-.33.13-.72s0-.8.54-1,.78-.41.78-.6c0-.5-.5-.41-1,.19M73.24,63.17c-.45.85-.45.85.36.13s1-1,.44-1c-.19,0-.56.39-.8.85m81.42.52c.34.34.73.5.87.36s0-.42-.3-.61c-.89-.56-1.23-.41-.57.25M71.29,65.75c-.36.21-.66.55-.66.75,0,.6.55.39,1.05-.4s.52-.87-.39-.35M238.82,67c0,1,.08,1.42.17.85A7,7,0,0,0,239,66c-.09-.46-.16,0-.16,1M84.32,66a2.46,2.46,0,0,0-.9,1c-.4.77-.36.76.57-.1a6.78,6.78,0,0,0,1-1c0-.14,0-.14-.67.12M68.93,69.12c-.37.42-.49.76-.26.76s.61-.34.83-.76.34-.75.26-.75a3.62,3.62,0,0,0-.83.75m13.22-.47a6.46,6.46,0,0,0-.93,1c-.41.56-.29.51.47-.16.93-.83,1.21-1.17.93-1.16a2.39,2.39,0,0,0-.47.28m220.4.71a2.23,2.23,0,0,0,.75,1c.42.35.76.5.76.33a2.3,2.3,0,0,0-.76-1c-.41-.38-.75-.53-.75-.33m-63.46,1.87a4.85,4.85,0,0,0,.81,1.23c.44.55.7.75.57.44s-.35-.86-.48-1.23c-.21-.61-.9-.94-.9-.44m67.09,3c.34.53.7.88.79.8.23-.23-.75-1.75-1.12-1.75-.16,0,0,.43.33,1M77,75.33c-1.07,1.35-1.42,2.16-.54,1.28A9.69,9.69,0,0,0,78.14,74,7.81,7.81,0,0,0,77,75.33m163,1c-.53.54-.59,1.06-.12,1.06.19,0,.43-.34.54-.75.23-.89.19-.91-.42-.31m67.92.26c0,.37,1,1.56,1.36,1.56s-.56-1.44-1-1.7c-.2-.13-.37-.07-.37.14M63.14,77.85c-.7,1.11-.39,1.2.43.11.37-.5.54-.91.37-.91s-.52.36-.8.8M321,77.68c-.28.44.36,1.52.69,1.18.13-.13.08-.53-.12-.88s-.45-.49-.57-.3m-81.48,1a1,1,0,0,0,.38.8c.21.13.38,0,.38-.33a1,1,0,0,0-.38-.8c-.21-.13-.38,0-.38.33M322.64,81c.23.52.57.94.75.94s.05-.42-.29-.94a3.45,3.45,0,0,0-.76-.94c-.07,0,.06.42.3.94M60.2,82.89a1.42,1.42,0,0,0,.81,2c.73.13.73.12,0-.41a1.21,1.21,0,0,1-.51-1.36c.24-.91,0-1.11-.33-.26m263.12-.22a1.43,1.43,0,0,0,.54.78c.44.37.5.31.33-.33s-.87-1.1-.87-.45m-10.49,2a1.14,1.14,0,0,0,.6.6c.28.09.36-.08.22-.45-.26-.69-1-.83-.82-.15M245.3,87.84a4.91,4.91,0,0,1-1.32,1c-.3.1-.43.31-.3.46s.82-.25,1.52-.87,1.17-1.19,1.07-1.27-.54.22-1,.67m71.22,0c-.91.35-1.08.51-.54.52a2.71,2.71,0,0,0,1.51-.53c.86-.65.78-.65-1,0m14.65,5a19,19,0,0,0,3,0c.78-.09.05-.15-1.61-.15s-2.3.07-1.41.15M50.05,93.3c-.28.45.46.45,1.51,0,.67-.29.65-.33-.26-.36a1.7,1.7,0,0,0-1.25.36m4,0c1.35.43,1.89.43,1.89,0,0-.21-.64-.37-1.41-.34-1.27,0-1.32.07-.48.34m177.91,1.22c0,.69.08.74.37.29.48-.74.48-1.14,0-1.14-.2,0-.37.39-.37.85m115.57,4.62a8.23,8.23,0,0,0,2.23,1.88c.21-.21-3.59-4-4-4-.15,0,.65.93,1.78,2.07m-31.26.55a5.14,5.14,0,0,0-1.22,1.4c0,.16.6-.29,1.33-1,1.22-1.18,1.48-1.51,1.21-1.51a12.55,12.55,0,0,0-1.32,1.11M229.54,102c-.11.42,0,.76.15.76s.34-.07.34-.16a3.6,3.6,0,0,1,.23-.76c.12-.32.06-.59-.15-.59s-.46.34-.57.75m120.82.57c.35.52.8.94,1,.94s0-.42-.48-.94a5.75,5.75,0,0,0-1-.94c-.07,0,.14.42.48.94M34.44,103a1.24,1.24,0,0,0-.35,1c.09.26.35.09.63-.42.56-1,.42-1.34-.28-.58m193.12,3.29c-.81.89-1,1.38-.41,1.16a1.58,1.58,0,0,0,.78-.81c.29-.76.13-.9-.37-.35M155,107a1,1,0,0,0,.6.6c.27.09.36-.08.22-.45-.27-.68-1.05-.83-.82-.15m197.71-.1a1.14,1.14,0,0,1,.24,1c-.1.29,0,.52.22.52.65,0,.5-1-.24-1.54-.55-.41-.58-.41-.22,0M224.88,110.4c-1,1.2-1.5,2-1,1.64s2.11-2.5,1.87-2.5a4.11,4.11,0,0,0-.9.86m-67.37.19a2.47,2.47,0,0,0,.81,1.06c.8.71.8.71.37-.11s-1.18-1.48-1.18-1m153.58,1.5c.36,1.48.52,1.53.52.15,0-.65-.17-1.19-.38-1.19s-.28.42-.14,1m-237,3.07c0,2,.16,3.28.34,3,.42-.66.4-5.26,0-5.94-.21-.34-.33.74-.31,3m-43-.52c0,1.24.07,1.71.16,1a10.09,10.09,0,0,0,0-2.27c-.08-.57-.15,0-.15,1.24m128.87-1c.38.42.77.68.87.58.26-.25-.69-1.33-1.16-1.33-.22,0-.08.34.29.75m61.55.66c-.87,1.16-.91,1.28-.2.67s1.74-2.08,1.41-2.08a7.34,7.34,0,0,0-1.21,1.41m89.59,1.49a3.64,3.64,0,0,0,.13,2.16c.26.25.38-.33.38-1.78,0-2.61-.19-2.75-.51-.38m42.23,2.8a.73.73,0,0,0,.17.83c.31.31.42.2.42-.41,0-.92-.2-1.06-.59-.42m-140.62,2.62c-.49.41-.72.74-.5.74.38,0,1.58-1,1.58-1.35s-.14-.18-1.08.61M309.35,124c-.73.41-1,.64-.63.52s1.11-.31,1.61-.43.91-.38.91-.57c0-.46-.36-.37-1.89.48m41.17,1.64c-.27.32-.4.67-.3.77s.41-.07.68-.39.4-.67.29-.78-.4.08-.67.4m-149.95.57c0,.2.25.37.56.37s.57-.17.57-.37-.25-.38-.57-.38-.56.17-.56.38M80.83,128c0,.18.34.42.76.53.89.24,1-.3.15-.63s-.91-.29-.91.1m218.79-.08c-.77.31-.53.83.29.61.41-.11.75-.35.75-.53,0-.36-.29-.38-1-.08m-263.36.5c0,.48,2.62,3.17,2.86,2.94s-.52-.88-1.35-1.76-1.51-1.4-1.51-1.18m310.52,1.91c-.49.42-.82.84-.72.93s.57-.24,1.06-.76c1.06-1.13.91-1.2-.34-.17m-260.85,0a.42.42,0,0,0,.56.18c.18-.1.39,0,.47.25s.35.33.67.13.37-.38-.21-.61c-1.07-.41-1.76-.39-1.49,0m208.32,0c-.3.19-.46.44-.35.55s.53,0,.93-.34c.8-.6.32-.78-.58-.21M64.4,133a.44.44,0,0,1-.59.17c-.2-.12-.35,0-.35.18,0,.54.42.49,1.3-.18.4-.3.54-.55.3-.55a.88.88,0,0,0-.66.38m264.21,2.64c0,.21.34.38.76.38s.75-.17.75-.38-.34-.38-.75-.38-.76.17-.76.38m4.91,0c0,.21.52.38,1.16.38s1.06-.16.92-.38a1.57,1.57,0,0,0-1.16-.38c-.5,0-.92.17-.92.38m-284,.38c.74.48,1.62.48,1.32,0a1.39,1.39,0,0,0-1.06-.38c-.67,0-.72.08-.26.38m5.29,0c0,.2.34.37.75.37s.76-.17.76-.37-.34-.38-.76-.38-.75.17-.75.38m211.14,4.53c.73.47,1.13.47,1.13,0,0-.21-.38-.38-.84-.37-.69,0-.75.07-.29.37m-181.3.38a.38.38,0,0,0,.28.4c.16,0,.62.09,1,.17.74.13.75.13,0-.41s-1.34-.69-1.34-.16m210.57.25c-.66.53-.67.58-.06.37a4.34,4.34,0,0,1,1.23-.25c.29,0,.53-.16.53-.37,0-.56-.84-.44-1.7.25m-174.31,1.64c0,.2.24.37.53.37a4.05,4.05,0,0,1,1.14.23c.33.13.6,0,.6-.21s-.18-.33-.38-.21-.38.06-.38-.16-.34-.4-.76-.4-.75.17-.75.38m137.51,0a1,1,0,0,1-.86.16c-.16-.1-.3,0-.3.25s.27.34.6.21a4.06,4.06,0,0,1,1.13-.23c.3,0,.54-.17.54-.37,0-.47-.4-.48-1.11,0m-167.9.35a3.75,3.75,0,0,0,1.31.59c.9.24.91.23.21-.34s-2.15-.84-1.52-.25M289.61,143c-.36.09-.66.34-.66.56s.27.29.6.16a3.32,3.32,0,0,1,.94-.23.37.37,0,0,0,.35-.38c0-.39-.13-.4-1.23-.11m-238.49,2.2c.59.34,1.17.52,1.29.4.32-.32,0-.51-1.23-.77l-1.13-.24,1.07.61m79.57.18c0,.21.25.38.57.38s.56-.17.56-.38-.25-.38-.56-.38-.57.17-.57.38m117.66,0c-.13.21.11.38.54.38s.78-.17.78-.38-.24-.38-.55-.38a1,1,0,0,0-.77.38M153,150.33c0,.21.34.38.77.38s.68-.17.55-.38a1,1,0,0,0-.78-.38c-.3,0-.54.17-.54.38m72.14,0c0,.21.25.38.56.38s.57-.17.57-.38-.25-.38-.57-.38-.56.17-.56.38m-69.88.41c0,.19.37.35.82.35s.7-.12.56-.27c-.41-.41-1.38-.46-1.38-.08m67.23,0c0,.21.39.37.85.37.69,0,.75-.08.29-.37-.73-.47-1.14-.47-1.14,0M169,152.6a1.32,1.32,0,0,0,1,.38c.41,0,.65-.18.52-.38a1.3,1.3,0,0,0-1-.38c-.42,0-.65.17-.52.38m38.06.07c.63.4,1.69.38,1.95,0,.12-.18-.38-.32-1.11-.3s-1.13.16-.84.34m-33.91.31c-.14.23.44.37,1.49.37s1.72-.17,1.72-.37-.67-.38-1.49-.38a2.81,2.81,0,0,0-1.72.38m27.2,0c2.14.44,4.05.43,3.77,0a6.07,6.07,0,0,0-2.76-.34c-2.35,0-2.42.07-1,.36m-15.77.63c1.92.07,5.06.07,7,0s.35-.12-3.5-.12-5.41.06-3.49.12m-132,4.07c0,1.45.07,2,.15,1.21a14.54,14.54,0,0,0,0-2.64c-.09-.67-.16,0-.15,1.43m197.23-2.08a1,1,0,0,0,.8.38c.31,0,.46-.17.33-.38a1,1,0,0,0-.8-.38c-.31,0-.46.17-.33.38m-10.48,2.16c-.58.08-1,.32-1,.53s.35.27.85.1a5.28,5.28,0,0,1,1.72-.21c.49,0,.77-.1.64-.32a.79.79,0,0,0-.68-.32l-1.49.22m-99.25.48c.73.48,1.13.48,1.13,0,0-.21-.38-.37-.85-.37-.68,0-.74.08-.28.37m86.5,2.27c0,.21.38.37.85.37.69,0,.74-.08.28-.37-.73-.47-1.13-.47-1.13,0m-57,2.18c0,.17.34.33.76.36s.75-.1.75-.3-.34-.35-.75-.35-.76.13-.76.29m39.1.08a1,1,0,0,0,.77.38c.3,0,.55-.17.55-.38s-.35-.37-.78-.37-.67.17-.54.37m-34.94.32c0,.18.77.35,1.72.38s1.64-.07,1.49-.31c-.28-.46-3.21-.52-3.21-.07m30,.06c-.28.46.83.46,1.89,0,.63-.27.56-.33-.45-.35a2.09,2.09,0,0,0-1.44.35m128,1.51c0,.94.07,1.32.16.85a5.39,5.39,0,0,0,0-1.7c-.09-.46-.16-.08-.16.85m-289.35,0c0,.73.08,1,.17.67a3,3,0,0,0,0-1.33c-.09-.36-.17-.06-.17.66m157.49-.19c.24.52.57.95.75.95.47,0,.38-.67-.13-1-.31-.19-.22-.36.28-.56s.57-.29-.3-.31-1,0-.6.91m142.05.76c0,.83.08,1.13.17.66a4,4,0,0,0,0-1.51c-.09-.36-.17,0-.16.85m-162.3,1.54a2,2,0,0,0-.59,1c0,.23,0,.35.09.26s.43-.54.82-1c.81-1,.58-1.15-.32-.25m11.49,3.45c0,.5,1,1.84,1.26,1.62s-.14-.59-.53-1.08-.73-.74-.73-.54M205,172.4c.13.32.4.59.6.59.49,0,.18-.86-.38-1-.28-.1-.36.08-.22.45m125.56,1.44c0,.57.16,1,.37,1,.48,0,.48-.77,0-1.51-.29-.44-.37-.34-.37.47m-124.21.48c.24.52.58.94.76.94s0-.42-.3-.94a3.89,3.89,0,0,0-.75-.95c-.08,0,.05.43.29.95M174.76,174c-.36.36-.31.88.08.88.19,0,.44-.25.56-.56.22-.58-.19-.78-.64-.32m165.94,1.07c0,.52.13.94.29.94s.34-.42.38-.94-.09-.94-.3-.94-.37.42-.37.94M208,176.92c.37.5.73.86.8.79s-.85-1.7-1.18-1.7c-.16,0,0,.41.38.91m-11.39,1.65c.39.67.84,1.22,1,1.22s.29.24.29.52a1.68,1.68,0,0,0,.64,1c.91.74-.94-2.51-1.91-3.36-.74-.65-.74-.64,0,.58M340.33,178c0,1.08.74,1.63.74.57,0-.58-.16-1-.37-1a.42.42,0,0,0-.37.47M43.81,179.6c0,.31.18.57.38.57s.38-.26.38-.57-.17-.56-.38-.56-.38.25-.38.56m126,2c-.36.37-.31.89.08.89.19,0,.44-.26.56-.57.22-.58-.19-.77-.64-.32m29.58,1a.9.9,0,0,0,.58.74c.47.18.5.08.17-.53-.46-.87-.75-1-.75-.21m12.44,0c.58,1.15,1.9,2.7,1.91,2.26a5.22,5.22,0,0,0-1.15-1.7c-.63-.72-1-1-.76-.56m-10.55,2.72c0,.51,1,1.85,1.26,1.63s-.14-.59-.54-1.08-.72-.74-.72-.55m-36.39,3.77c-.36.36-.31.88.09.88.19,0,.44-.25.56-.57.22-.57-.19-.77-.65-.31m173.12.69c0,.31.18.57.38.57s.38-.26.38-.57-.17-.56-.38-.56-.38.25-.38.56m-176,4c-.6,1.12-.29,1.19.51.12.37-.5.51-.91.3-.91s-.58.36-.81.79m59,2.47c0,.47,1.08,1.82,1.27,1.63s-.17-.57-.56-1.06-.72-.74-.71-.57m104.5.8c-.19,1-.07,1.56.25,1.2s.59-2.24.29-2.24-.43.47-.54,1m-165.86.51c-.52,1-.52,1.12,0,.69.79-.66,1.41-1.86.95-1.86-.2,0-.63.53-.95,1.17m176.18.88c-.48,1.26-.48,1.35,0,1.35.21,0,.35-.13.32-.28a2.18,2.18,0,0,1,.23-1c.16-.37.2-.78.07-.91s-.4.24-.61.8m-287,2.18c.39,1.37.63,1.67,1,1.26.16-.17.09-.37-.14-.46s-.36-.46-.26-.84a.73.73,0,0,0-.38-.9c-.47-.18-.51,0-.23.94m162.4-.6c0,.44,1.48,2.32,1.5,1.91a3.91,3.91,0,0,0-.75-1.28c-.42-.53-.75-.81-.75-.63m13.3,1.73a1,1,0,0,0,.6.6c.27.09.36-.08.22-.45-.27-.69-1.05-.83-.82-.15m-56.1,1.29c-.37.5-.51.91-.3.91.38,0,1.34-1.47,1.1-1.7-.07-.06-.43.29-.8.79m-12.86.84c-.69.76-.8,1.2-.31,1.2.17,0,.51-.43.75-.95.51-1.12.4-1.18-.44-.25m-94.07,1.48c.11.57.35,1.1.55,1.17a.29.29,0,0,1,.16.44.42.42,0,0,0,.19.56c.57.35.46-.66-.17-1.56-.31-.44-.47-.88-.36-1s0-.31-.17-.44-.31.17-.2.82m-10.77.47c0,.8.62,1.74,1,1.39a.36.36,0,0,0-.11-.56,1.93,1.93,0,0,1-.62-.83c-.19-.5-.22-.5-.24,0m177,.53c.37.5.73.86.8.79.24-.22-.71-1.69-1.1-1.69-.21,0-.07.4.3.9m93.82,2.21a10.29,10.29,0,0,0-.4,1.23,2.36,2.36,0,0,1-.47.85c-.27.32-.27.47,0,.47s.65-.76,1-1.7c.58-1.71.5-2.42-.1-.85m-92,.82c.13.33.4.6.6.6.5,0,.19-.86-.38-1-.27-.09-.36.08-.22.45m-79,2.11c-.38.42-.49.76-.26.76s.6-.34.83-.76.34-.76.26-.76a3.52,3.52,0,0,0-.83.76M64,211.74a3.75,3.75,0,0,1,.23.75c0,.09.16.16.34.16s.26-.34.15-.75-.37-.76-.57-.76-.27.27-.15.6m155.11.57c.23.43.52.69.63.58.31-.31-.19-1.37-.65-1.37-.28,0-.27.24,0,.79m-58.46,2.33c-.73,1-1,1.54-.54,1.26s1.34-1.74,1.06-1.74c-.08,0-.31.22-.52.48m-13.71,2.26c-.43.89-.52,1.27-.21.85s.71-.92.89-1.13c.68-.83.87-1.32.49-1.32-.21,0-.74.72-1.17,1.6m11.65.95c-.89,1-1.14,1.6-.72,1.6.22,0,.66-.51,1-1.13.66-1.28.57-1.44-.26-.47m-13.31,1.44a2,2,0,0,0-.6,1c0,.23.35,0,.76-.46,1.08-1.25,1-1.66-.16-.54m79.12.61a1.11,1.11,0,0,0,.38.89c.67.41.76,0,.18-.8s-.56-.65-.56-.09m13.09,1.24c.37.51.82.94,1,.94s0-.4-.38-.92-.81-.93-1-.94,0,.41.38.92M226.32,223c.23.51.56.85.73.74s0-.52-.33-.93c-.84-1-.92-.94-.4.19m99.49-.31c-.32.82.1,1.2.55.5s.46-1.12,0-1.12c-.19,0-.45.28-.58.62m-183.35.92c-.7,1.12-.39,1.21.43.12.37-.5.54-.91.37-.91s-.52.36-.8.79m181,3.84c-.53,1-.54,1.15,0,.74s1.18-2,.83-2a4.52,4.52,0,0,0-.78,1.23m-170.71-.56c-.46.3-1.42,2-1.14,2a4.73,4.73,0,0,0,1-1.14c.83-1.17.86-1.32.15-.84m-79.23,2.45c1,1.58,2,3,2,2.69a10.4,10.4,0,0,0-2.11-3.16c-.11,0-.07.21.09.47m157.26.17c0,.5,1,1.84,1.26,1.62s-.14-.59-.53-1.08-.73-.73-.73-.54m-93.55,1.91a8.52,8.52,0,0,1-.39.94c-.38.7.25.19.8-.66.35-.52.44-.95.22-.95s-.5.3-.63.67m-74.13.66c0,.54,1.07,1.87,1.31,1.63s-.14-.61-.55-1.11-.76-.73-.76-.52m169.57.26a1.77,1.77,0,0,0,.63,1.11c.58.47.59.43.14-.43-.66-1.27-.77-1.36-.77-.68m75.56.75c-.71.76-1,1.44-.61,1.44a4.72,4.72,0,0,0,1-1.13c1-1.33.75-1.5-.36-.31m-172.94,1.56a3.37,3.37,0,0,0-.82,1.19c0,.17.42-.15.94-.71.88-.94,1.13-1.36.82-1.36a5.36,5.36,0,0,0-.94.88m99.08.26a3.62,3.62,0,0,0,.83.75c.08,0,0-.34-.26-.75s-.6-.76-.83-.76-.11.34.26.76M65.92,236.56c.36.57.76.95.87.84s-.18-.59-.66-1.05l-.88-.84.67,1.05m239.74.27c-.26.42-.31.75-.11.75s.55-.34.78-.75.27-.76.1-.76-.51.34-.77.76m12.53-.09c-.42.27-1.43,2-1.18,2a5.84,5.84,0,0,0,1-1.14c.87-1.18.9-1.31.21-.84M143.8,240.45c-.38.5-.54.91-.38.91.33,0,1.37-1.51,1.18-1.7s-.43.29-.8.79m159.08.12c-.5.4-.8.82-.68.94s.62-.2,1.11-.72c1.05-1.12.82-1.23-.43-.22m-221.67-.08a2.31,2.31,0,0,0,.75,1.06c.42.38.76.51.76.3a2.33,2.33,0,0,0-.76-1.06c-.41-.37-.75-.51-.75-.3m157.6,1.26c.26.41.59.74.74.74.46,0-.1-1.06-.67-1.28s-.45-.07-.07.54m13.56,1.5a5.48,5.48,0,0,0,1,1.13c.08,0-.16-.51-.53-1.13s-.81-1.13-1-1.13.07.5.53,1.13m48.74-.29c-.44.47-1.33,1.41-2,2.08s-1.12,1.38-1.05,1.58,1-.74,2.11-2.07c2-2.44,2.42-3.17.92-1.59m11.78,1.29c-.36.59-.84,1.33-1.06,1.64s0,.25.45-.15a2.35,2.35,0,0,0,.85-1.2.74.74,0,0,1,.47-.64c.26-.1.36-.29.22-.44s-.56.2-.93.79m-184.83,1.34c-.71.76-1,1.43-.61,1.43a4.5,4.5,0,0,0,1-1.13c1-1.32.75-1.49-.36-.3M241,245c0,.65.65,1.35.89,1,.12-.21,0-.59-.34-.85s-.55-.31-.55-.13m13.14.89c.34.59.75,1,.9.9.35-.22-.45-1.57-1.07-1.81-.28-.11-.21.24.17.91M126,248.76c-.37.5-.5.91-.29.91.38,0,1.33-1.47,1.1-1.7-.07-.06-.43.29-.81.79m170-.19c-.71.41-.89,1.1-.29,1.1.2,0,.54-.34.77-.76.46-.86.43-.87-.48-.34m-158.37,1.19-.59,1.23.77-.94c.74-.91,1-1.51.6-1.51a3.69,3.69,0,0,0-.78,1.22m170.94-.1c-.33.61-.3.71.17.53a.9.9,0,0,0,.58-.75c0-.74-.28-.65-.75.22M90.47,251.5c2.09,2.17,3.28,3.16,2,1.66-2.3-2.67-2.85-3.23-3.5-3.58-.41-.22.27.65,1.5,1.92m-13,.44c1,1.46,2.26,2.83,2.23,2.37a10.47,10.47,0,0,0-1.56-2c-1.33-1.46-1.42-1.51-.67-.37m168.08-.14c0,.46,1.08,1.81,1.27,1.62s-.17-.56-.56-1-.72-.75-.71-.57m46.63,1.27c-.38.42-.6.85-.49,1s.48-.24.83-.76c.75-1.15.6-1.24-.34-.2M122.28,254.2c-.54.83-.83,1.51-.63,1.51a.32.32,0,0,0,.35-.28,4.82,4.82,0,0,1,1-1.38c1-1.19,1.1-1.36.63-1.36a4.58,4.58,0,0,0-1.3,1.51m138.8,1c.57.59,1.12,1,1.23.87s-.36-.58-1-1.06l-1.22-.88,1,1.07m42.75.26c-2.25,2.46-2.55,3.06-.56,1.13a8.31,8.31,0,0,0,1.86-2.17c-.1-.1-.68.37-1.3,1m-223.37.08c.31.41.77,1,1,1.32s.73.92,1.05,1.34c.55.69.55.66,0-.38A8,8,0,0,0,81,255.71c-.7-.62-.87-.69-.51-.2m53.18.49c-.72.83-1.16,1.6-.92,1.6a4.37,4.37,0,0,0,1-1.13c.88-1.24.84-1.53-.07-.47m140.58.47c0,.21.34.38.76.38s.75-.17.75-.38-.34-.38-.75-.38-.76.17-.76.38m17.16.21a1.94,1.94,0,0,1,.59,1c0,.23.1.32.22.2.31-.31-.53-1.8-1-1.8-.22,0-.13.27.2.59m-186.16.37c-.41.3-.57.55-.36.55a2.72,2.72,0,0,0,1.11-.55c.41-.31.56-.56.36-.56a2.64,2.64,0,0,0-1.11.56m143.7-.3a4.31,4.31,0,0,0,.78,1.23l.77.94-.6-1.22c-.57-1.17-1-1.57-1-.95m31.44,1.95c.18.7,1.79,1.79,1.79,1.21a.42.42,0,0,0-.43-.42,1.78,1.78,0,0,1-1-.66c-.35-.44-.48-.48-.39-.13m13,.57a1.48,1.48,0,0,0,.75.75c.44.17.47.06.14-.54-.45-.85-1.21-1-.89-.21m-162.1.35c-.68.75-1,1.38-.66,1.38s1.38-1.51,1.17-1.7c-.06-.06-.29.08-.51.32m168,.84c-1.79,1.81-1.33,1.92.53.12.83-.8,1.34-1.45,1.13-1.44a5.53,5.53,0,0,0-1.66,1.32M98,262.14c-2.07,2.07-2.2,2.61-.16.65,1.33-1.28,2.42-2.55,2.18-2.54a22.88,22.88,0,0,0-2,1.89m184.88-1.26c0,.48,1.45,1.82,1.7,1.57.1-.1-.24-.59-.76-1.07s-.94-.71-.94-.5m12.48,1.33a1.05,1.05,0,0,0,.39.88c.66.42.76,0,.17-.79s-.55-.66-.56-.09M25.55,264.6c-.18.44-.08.5.43.24a1.66,1.66,0,0,1,1.12-.17c.26.1.47,0,.47-.24,0-.63-1.78-.48-2,.17m69.66.88c-.61,1.15-.48,1.47.2.49.33-.47.52-1,.41-1.06s-.38.15-.61.57m-68,1c-.84.92-.85,1-.11.58a2.4,2.4,0,0,0,1-1c.31-.81.14-.73-.91.42m13.43-.24c-.12.21.13.38.57.38s.7-.17.57-.38a.62.62,0,0,0-1.14,0m92.48,2.29c.23.61.53,1.11.66,1.11.44,0-.1-1.83-.59-2s-.4,0-.07.91M20.4,271.46a.9.9,0,0,0,.38.69c.49.3,1.88-.14,1.88-.6,0-.2-.34-.14-.76.12-.64.39-.83.38-1.13-.09s-.36-.39-.37-.12m8.66,2.64-.92,1,1.23-.85c1.24-.85,1.48-1.17.91-1.17a3.52,3.52,0,0,0-1.22,1m-12.65-.3a3.19,3.19,0,0,0,1,.83c.56.3.71.3.53,0a3.24,3.24,0,0,0-1-.83c-.56-.3-.71-.3-.52,0m273.81,3.63c0,1.87.06,2.68.14,1.81a24.1,24.1,0,0,0,0-3.4c-.07-1-.14-.28-.14,1.59m-236.94.85c.68.88,1.31,1.53,1.41,1.44s-.47-.82-1.25-1.61L52,276.68l1.25,1.6m-14.85,3.26a2.88,2.88,0,0,0,.76,1.45c.5.41.54.35.3-.46-.43-1.43-1.3-2.24-1.06-1m6-.14a3.62,3.62,0,0,0,.83.75c.08,0,0-.34-.26-.75s-.6-.76-.83-.76-.11.34.26.76m-6.23,1.8a2.48,2.48,0,0,0,.81,1.07c.8.71.81.71.37-.11s-1.18-1.49-1.18-1m2.52,1.56c.12.44.37.79.57.79s.28.13.19.29a12.87,12.87,0,0,0,2.51,2.92c1.47,1.46,2.36,2.26,2,1.8s-.54-.85-.22-.85.39-.12,0-.57-.62-.46-.81-.35-.44-.1-.58-.47c-.35-1-1.69-2.4-2.07-2.17-.18.11-.32,0-.32-.33a2.15,2.15,0,0,0-.73-1.19c-.7-.63-.72-.63-.53.13m5.28-.17c-.14.37,0,.48.34.33s.49,0,.31.5-.14.6.19.29S47,284,46.46,284c-.16,0-.39.25-.51.55m87.41.91c-.23.43-.26.85-.07,1s.43-.17.55-.62c.29-1.11,0-1.3-.48-.35m-110.3.62c.88,1.22,3.78,4.07,4,3.9a11.28,11.28,0,0,0-2.16-2.41c-1.28-1.24-2.09-1.91-1.79-1.49m35.87.09a4.31,4.31,0,0,0,.78,1.23l.77.95-.6-1.23c-.57-1.17-1-1.56-1-1m190.66.83c.35.61.68,1.06.75,1s-.78-2.1-1.09-2.1,0,.5.34,1.11M47.33,288.2c0,1.14.07,1.61.16,1a9,9,0,0,0,0-2.07c-.09-.57-.16-.11-.16,1m187,.36-1.51.72,1.32-.23a3.52,3.52,0,0,0,1.51-.49,2,2,0,0,1,.95-.46l.75-.19-.75,0a6.52,6.52,0,0,0-2.27.69M38.53,289c0,.21.35.38.78.38s.67-.17.54-.38a1,1,0,0,0-.78-.38c-.3,0-.54.17-.54.38m92.8.6c-.37.5-.5.91-.29.91.38,0,1.33-1.47,1.1-1.69-.07-.07-.43.29-.81.78m119.47-.31a1.48,1.48,0,0,0,.57.84c.31.27.57.31.57.1a1.53,1.53,0,0,0-.57-.85c-.32-.26-.57-.3-.57-.09m-189.42,1.6a4.27,4.27,0,0,0,.82,1.51c.49.5.5.43.08-.56-.64-1.53-1.25-2.17-.9-1M28,291c.89,1.2,1.5,1.78,1.5,1.41a3.46,3.46,0,0,0-1-1.25c-.75-.67-.87-.71-.47-.16m112.38.27c-.73,1.05-.76,1.62-.06,1,.29-.27.46-.56.38-.64s.05-.38.28-.66.32-.51.2-.51-.47.38-.8.84m85.53-.46c0,.21.34.38.76.38s.75-.17.75-.38-.34-.38-.75-.38-.76.17-.76.38m26.86.73c.51.8,2.23,2.25,2.22,1.87a10.87,10.87,0,0,0-1.4-1.47c-1-1-1.25-1.08-.82-.4m-123.67.8c-.58.61-.91,1.11-.72,1.11.35,0,1.26-.93,1.75-1.79s.13-.54-1,.68m-82.22.14c0,.72-1.51.93-2.46.34a1.07,1.07,0,0,0-1.32-.07c-.48.33-.46.36.08.19a.84.84,0,0,1,1,.37c.42.76,3.47.05,3.47-.81,0-.31-.17-.56-.38-.56s-.37.25-.37.54m122.94,1c.28.44,1.7.51,1.7.08,0-.17-.43-.33-1-.38s-.87.08-.74.3m42.87,0c0,.21.34.38.76.38s.75-.17.75-.38-.34-.37-.75-.37-.76.17-.76.37m69.35.72a5.71,5.71,0,0,1-1.76,1.18c-.61.26-1.11.6-1.11.77,0,.36,3.29-1.42,3.62-2,.45-.71-.1-.7-.75,0m-232.35.07c-.13.22-.18.43-.11.48l.88.63c.74.53.74.52.1-.23-.37-.43-.55-.9-.41-1s.15-.25,0-.25-.34.18-.48.41m131.18.61a5.39,5.39,0,0,0,1.7,0c.47-.09.09-.16-.85-.16s-1.32.07-.85.16m21.16,0a4.23,4.23,0,0,0,1.51,0c.36-.1,0-.17-.86-.17s-1.12.08-.65.18m-99.3.84a3.39,3.39,0,0,0,1.22.78c.66,0,.32-.37-.89-1l-1.23-.59.9.77m251.79.4a1,1,0,0,0,.78.38c.3,0,.55-.17.55-.38s-.35-.38-.78-.38-.67.17-.55.38M34.37,297c0,.37,2.63,3.1,2.81,2.92s0-.34-.1-.54A12.31,12.31,0,0,0,34.37,297m335.79,1.37c0,.18.44.53,1,.77s.87.28.73.06c-.34-.55-1.7-1.22-1.7-.83m-259.68.45c-.13.21.11.38.52.38a1.28,1.28,0,0,0,1-.38c.13-.2-.1-.38-.52-.38a1.34,1.34,0,0,0-1,.38m4,0c0,.21.34.38.75.38s.76-.17.76-.38-.34-.38-.76-.38-.75.18-.75.38m153.54,0c-.14.22.25.38.92.38s1.16-.17,1.16-.38-.42-.38-.93-.38a1.61,1.61,0,0,0-1.15.38m78.9.43-.71.81,1.22-.63c1.31-.67,1.54-1,.72-1a2.39,2.39,0,0,0-1.23.81M64,300.49c-.35.55-.56,1.08-.46,1.18s.49-.25.84-.8.56-1.07.46-1.18-.48.26-.84.8m280.39.64c-.44.85-.44.85.37.13s1-1,.44-1c-.2,0-.56.39-.81.85m-305.7,0a2.48,2.48,0,0,0,1.15.93c.84.4.91.38.5-.11-.69-.83-1.89-1.42-1.65-.82m118.78.3c.73.47,1.13.47,1.13,0,0-.21-.38-.38-.85-.38-.69,0-.74.08-.28.38m68,0c0,.2.34.33.75.3s.76-.19.76-.35-.34-.3-.76-.3-.75.16-.75.35m149.19.16a10.63,10.63,0,0,0,1.19,1.21c1.18,1.11,1.18,1.11.54.1-.52-.81-1.73-1.74-1.73-1.31m-332,2.08c0,.39,1.15.92,1.41.66.09-.09-.19-.36-.62-.59s-.79-.26-.79-.07m126.16.05c-.43.28-.27.37.66.37.68,0,1.23-.16,1.23-.37,0-.48-1.15-.48-1.89,0m43.54,0a5.17,5.17,0,0,0-1.89.57c-.16.17.47.18,1.41,0a16,16,0,0,1,2.76-.24c.64,0,1-.1.83-.33-.26-.42-.7-.42-3.11,0m-40.52.4c1.44.46,3,.46,2.27,0a4.24,4.24,0,0,0-1.89-.33c-1.21,0-1.25,0-.38.33m205.49.57c.88,1.2,1.5,1.78,1.5,1.41a3.46,3.46,0,0,0-1-1.25c-.75-.68-.88-.72-.47-.16M206,304.7a3.26,3.26,0,0,0,1.32,0c.36-.1.07-.17-.66-.17s-1,.07-.66.17M339.13,306c-.74.83-1.23,1.51-1.1,1.51a8.51,8.51,0,0,0,1.72-1.51c.82-.83,1.31-1.51,1.11-1.51a5.81,5.81,0,0,0-1.73,1.51M63.46,305c0,.54,1,1.91,1.26,1.67s-.13-.62-.53-1.13-.72-.76-.73-.54M189,305.1c2,.07,5.34.07,7.37,0s.37-.13-3.69-.13-5.7.06-3.68.13m-142.28.63c.4.29.85.45,1,.35s.29,0,.29.22a.39.39,0,0,0,.38.4c.83,0,.3-.7-.81-1.09-1.57-.55-1.75-.53-.87.12m205.27.22c0,.21.25.38.56.38s.57-.17.57-.38-.26-.38-.57-.38-.56.17-.56.38M54.39,308.59c0,.21.44.38,1,.38s.86-.16.73-.38a1.29,1.29,0,0,0-1-.38c-.4,0-.73.18-.73.38m325.8,1.23c.31,1,.48,1.23.72,1s-.24-1.84-.62-1.84c-.2,0-.24.38-.1.85m-45,0c-.21.52.07,1,1.17,2.07.81.76,1.08.94.6.4a6.65,6.65,0,0,1-1.16-2.08c-.27-.94-.36-1-.61-.39m-102.16.62c.68.44,2.66.45,4.72,0,1.25-.26.93-.32-1.89-.35-2.32,0-3.22.08-2.83.33m-148.82.38c0,.21.24.38.55.38a1,1,0,0,0,.77-.38c.13-.21-.11-.38-.54-.38s-.78.17-.78.38m114.64,0a1.53,1.53,0,0,0,1.15.38c.51,0,.92-.17.92-.38s-.52-.38-1.15-.38-1.06.16-.92.38m52.94.25c-.46.46-.26.86.31.64.32-.12.57-.37.57-.55,0-.4-.52-.45-.88-.09m-188.72.36c0,.67,1.12,1.85,1.12,1.21a1.64,1.64,0,0,0-.56-1.07c-.32-.25-.57-.32-.56-.14m268,2.47a7.64,7.64,0,0,0-1.67,2,7.44,7.44,0,0,0,2-1.74,9.13,9.13,0,0,0,1.66-2,8.86,8.86,0,0,0-2,1.74m4.24-.93c.46.88,1.12,1.43,1.4,1.16.09-.09-.29-.57-.84-1.07-.94-.88-1-.88-.56-.09m-270.77.35a2.72,2.72,0,0,0,.55,1.11c.31.4.56.56.56.36a2.72,2.72,0,0,0-.56-1.12c-.3-.4-.55-.56-.55-.35m127.29.33c-.26.32-.3.57-.09.57a1.51,1.51,0,0,0,.84-.57c.27-.31.31-.56.1-.56a1.5,1.5,0,0,0-.85.56m52.69.19c-.13.21.11.38.52.38a1.28,1.28,0,0,0,1-.38c.13-.21-.1-.38-.52-.38a1.28,1.28,0,0,0-1,.38m-152.14,1.5A5.47,5.47,0,0,0,94,316.73c.2-.21-2.25-2.85-2.64-2.85-.17,0,.31.67,1.09,1.5m40-.52c-.14.37-.06.54.22.44.56-.18.87-1,.38-1-.21,0-.48.27-.6.6m106.39-.33a6.55,6.55,0,0,0,1.88,0c.47-.09,0-.16-1-.15s-1.42.07-.84.16m-37.57.39c2.14.07,5.54.07,7.55,0s.27-.12-3.89-.12-5.8.05-3.66.12m26.05,0a10.66,10.66,0,0,0,2.26,0c.57-.09,0-.16-1.23-.16s-1.71.08-1,.16m-32.29.95c-.74,1-1,1.54-.55,1.27s1.34-1.74,1.07-1.74c-.09,0-.32.21-.52.47m113.46.16c-.46.46-.26.86.31.64.31-.12.57-.37.57-.55,0-.4-.52-.45-.88-.09m-220.84.46a.41.41,0,0,0,.4.42c.22,0,.29.17.17.38s-.06.38.16.38c.58,0,.49-.59-.16-1.14-.39-.32-.57-.33-.57,0m240,1.34c-.41.29-.64.63-.51.75s.53-.12.9-.53c.81-.89.64-1-.39-.22M85.93,318c-.13.2.12.37.54.37s.78-.17.78-.37-.24-.38-.54-.38a1,1,0,0,0-.78.38m254,.26a3.28,3.28,0,0,0,.8,1.06c.65.4.41-.19-.43-1.06l-.8-.83.43.83m2.07.49c.13.31.34.86.47,1.23s.39.66.57.66c.52,0,.4-.36-.47-1.45-.45-.55-.7-.75-.57-.44M216.32,320c-.17.63-.11.69.33.33.6-.5.71-1.11.2-1.11-.18,0-.42.35-.53.78m109.49.19c-.69.68-.75.92-.23.92.2,0,.54-.34.77-.76.48-.91.27-1-.54-.16m-136.95,1.32a2.79,2.79,0,0,0,.55,1.32c.72,1,.73.54,0-.83-.31-.59-.57-.82-.57-.49m119.41.54a2.22,2.22,0,0,1-.2,1.26c-.17.27-.21.59-.1.7s.42-.23.67-.79c.37-.79.36-1.1,0-1.46s-.46-.31-.36.29M79.32,323.32c0,.2.41.34.92.3s.83-.21.73-.38c-.27-.43-1.65-.36-1.65.08m53.88.47a1.42,1.42,0,0,0,.1,1.16c.17.18.39-.2.49-.84.19-1.34-.26-1.58-.59-.32m211,2c0,1.24.08,1.71.16,1a10,10,0,0,0,0-2.26c-.09-.57-.16,0-.16,1.23m-129.55-.85a13.86,13.86,0,0,0-1.24,3.49c0,.54,1.14-1.68,1.51-2.92s.23-1.34-.27-.57m108.29.92a1.43,1.43,0,0,0,.37,1.06c.48.3.48-.58,0-1.32-.29-.46-.36-.41-.37.26m-17.43,1.62c-.49.41-.71.74-.48.75a2.18,2.18,0,0,0,1.1-.74c.87-1,.53-1-.62,0m17.39.1a34.82,34.82,0,0,0,0,7.65c.29,1.24.37.69.4-3.11s-.1-5.28-.38-4.54M309,329.42c-.62.76-.7,1-.27.85s1.53-1.6,1.27-1.83c-.07-.06-.52.38-1,1m-92-.05c-.11.41-.05.85.14,1s.34.05.34-.15a3.69,3.69,0,0,1,.23-1c.13-.33.06-.6-.14-.6s-.47.34-.57.76m80.94.94c0,.31.17.57.37.57s.38-.26.38-.57-.17-.57-.38-.57-.37.26-.37.57m79.88.57c-.37.41-.49.75-.26.75s.61-.34.83-.75.34-.76.26-.76a3.52,3.52,0,0,0-.83.76m-247.21.19c0,.31.17.56.38.56s.38-.25.38-.56-.18-.57-.38-.57-.38.26-.38.57m210.65.2c-.35.41-.49.74-.31.74.42,0,1.34-1.09,1.12-1.32s-.46.17-.81.58m-129.57.82c-.21.78-.05,1.37.27,1s.62-1.85.31-1.85-.46.37-.58.83m94.89.3a5.16,5.16,0,0,0-1.28,1.41c-.6.95-.54.93.71-.26,1.66-1.57,1.81-1.87.57-1.15m34.6.38a.41.41,0,0,1-.55.19c-.17-.1-.41.07-.53.38-.18.48-.08.51.57.16a2.38,2.38,0,0,1,1.47-.24c.47.12.63,0,.49-.35a.83.83,0,0,0-1.45-.14m-4,1.62c-.93.89-2,2-2.45,2.53l-.75.91,1-.74c1-.77,4.36-4.32,4.09-4.32a14.49,14.49,0,0,0-1.84,1.62m11.92-.89c-.12.2.13.33.55.3s.76-.19.76-.36c0-.42-1-.37-1.31.06m4.33,0c0,.21.35.38.78.38s.67-.17.54-.38a1,1,0,0,0-.78-.38c-.29,0-.54.17-.54.38m-177.71,1a2.27,2.27,0,0,1,1.06.63c.21.28.26.24.16-.14a1.18,1.18,0,0,0-1.06-.63c-.73-.06-.76,0-.16.14m39.08.5c-.28.53-.31,1-.07,1.19s.45,0,.62-.65a2.22,2.22,0,0,0,.08-1.19c-.1-.1-.38.2-.63.65m81.07.41c-.38.63-.58,1.25-.46,1.37.29.29.64-.05.74-.71a3.24,3.24,0,0,1,.39-1c.17-.27.24-.56.16-.65s-.46.37-.83,1m12-1c.9.31,4.36.43,3.9.14a6.54,6.54,0,0,0-2.39-.3c-1,0-1.72.08-1.51.16m43.16.08a10,10,0,0,0,2.26,0c.57-.09,0-.16-1.23-.16s-1.71.08-1,.16M86.42,335.77c-.11.74,0,1.12.23,1A1.32,1.32,0,0,0,87,335c-.24-.23-.43.05-.54.81m155.42-.84a7,7,0,0,0,1.89,0c.46-.09,0-.16-1-.16s-1.42.08-.84.17m-134.24.87-.9.76,1-.45c.57-.24,1-.59,1-.76,0-.47-.2-.4-1.18.45m10.25-.4c0,.2.38.56.85.81.84.44.84.44.13-.37s-1-1-1-.44m37.39.74a1.94,1.94,0,0,0,.34,1.32c.19.12.32-.38.3-1.11,0-1.59-.64-1.78-.64-.21m-4,.5-1.11,1.23,1.23-1.11c1.14-1,1.4-1.35,1.11-1.35a8.8,8.8,0,0,0-1.23,1.23m-72,.55a13.65,13.65,0,0,0,2.64,0c.78-.08.24-.15-1.22-.15s-2.09.06-1.42.14M323,338.27c0,.54.16.86.37.73a1.25,1.25,0,0,0,.38-1c0-.4-.17-.73-.38-.73s-.37.43-.37,1m40.41,1.16a14.69,14.69,0,0,0,2.19,2.16c.86.4,0-.66-2-2.42l-1.89-1.68,1.7,1.94m-89.89-1.06c0,.17.59.31,1.32.31s1.32-.14,1.32-.31-.59-.32-1.32-.32-1.32.15-1.32.32m35.88-.07c0,.31,1.22,1.24,1.66,1.25.19,0,0-.32-.34-.74-.67-.74-1.32-1-1.32-.51m24.27,0c-.26.11-.48.33-.48.5,0,.51,1.1.76,1.37.31.17-.27.09-.31-.24-.11s-.43.14-.26-.32.21-.61.16-.6l-.55.22M60.21,340.91c-1,.94-1.67,1.8-1.57,1.9a19.07,19.07,0,0,0,3.68-3.49c0-.37-.54,0-2.11,1.59m189.08-.21c0,.94.15,1.46.38,1.32a2.48,2.48,0,0,0,0-2.64c-.23-.14-.38.38-.38,1.32m-142.42-.28c-1.55,1.35-2.36,2.55-1.09,1.6.85-.63,2.47-2.46,2.17-2.45a7,7,0,0,0-1.08.85m172.64.28a5.92,5.92,0,0,0,1.66,1.13c.18,0-.31-.51-1.09-1.13-1.85-1.47-2.29-1.47-.57,0m62.94.74c-2.36,2.52-2.24,2.91.14.46,1.71-1.75,2.14-2.33,1.75-2.33a17.82,17.82,0,0,0-1.89,1.87m-171.28-.54a4.53,4.53,0,0,0-.43,1.42c0,.25.27-.12.57-.83.65-1.49.51-2-.14-.59m-106,.38c-.61.49-1,1-.94,1.07s.66-.25,1.25-.76c1.41-1.21,1.15-1.47-.31-.31m218.49-.39c0,.31.17.56.38.56s.38-.25.38-.56-.17-.57-.38-.57-.38.26-.38.57m18.13-.19c-.3.18-.41.46-.26.61s.48.08.72-.16c.57-.57.25-.89-.46-.45m-154.74.91c-.59.5-1,1-.87,1.05s.67-.34,1.27-.92c1.34-1.28,1.05-1.38-.4-.13m88.31-.11c-.5.4-.84.8-.76.88s.56-.19,1.05-.59.84-.8.76-.88-.56.18-1,.59m31.74,0c-.49.39-.75.71-.57.71.46,0,1.81-1.08,1.62-1.28s-.56.17-1,.57M339.38,343c-.6.63-.92,1.14-.71,1.14s.75-.51,1.21-1.14a4,4,0,0,0,.71-1.13,8.1,8.1,0,0,0-1.21,1.13m-9,.19c-.34.52-.49.94-.33.94.43,0,1.71-1.88,1.3-1.88-.2,0-.63.43-1,.94m-31.46-.1c-.81,1-.92,1.42-.35,1.2s1.14-1.26.86-1.54c-.08-.08-.31.08-.51.34M62.17,344.13c-.87,1-1.24,1.86-.84,1.86a8.78,8.78,0,0,0,1.14-1.51c1.19-1.81,1.05-2-.3-.35m42-.5c-1.2,1.44-1.63,2.11-1.2,1.85s2.17-2.52,1.9-2.52a2.34,2.34,0,0,0-.7.67m261,.11c.13.52.33.66.57.42a.74.74,0,0,0-.46-1.2c-.17,0-.22.36-.11.78m-40,.38c.18.49.52.92.77,1s.27,0,.06-.11a.36.36,0,0,1-.21-.49c.11-.17-.07-.52-.38-.78-.49-.41-.52-.35-.24.41m-98.68.6c-.36.94,0,1.07.52.17.23-.44.26-.79.07-.79s-.46.28-.59.62m64.59,0c-.74.74-.76,1-.06.69a1.44,1.44,0,0,0,.74-.74c.27-.7.05-.69-.68.05m19.66.48c-.17.48-.21,1-.08,1.1.39.39.66-.19.52-1.1l-.14-.88-.3.88m27.43-.18c-.47.23-.85.55-.85.71,0,.52.63.3,1.32-.47s.74-.84-.47-.24m-8.22,1c-1,1.07-.56,1.16.54.11.5-.48.73-.87.53-.87a2.29,2.29,0,0,0-1.07.76m-204.66.45c-.31,1.18-.07,1.24.44.11.24-.51.28-.94.11-.94s-.43.37-.55.83m104.85.3c-.52.65-.71,1.18-.48,1.32s.39,0,.39-.23a3,3,0,0,1,.82-1.35c.45-.48.66-.86.47-.85a3.44,3.44,0,0,0-1.2,1.11m66.26,0c-.37.62-.53,1.13-.37,1.13s.6-.51.95-1.13.52-1.13.37-1.13-.58.51-.95,1.13m-7.43.57c-.49.52-.71.94-.49.94s.68-.42,1-.94.56-.95.49-.95a6,6,0,0,0-1,.95M173,347.44c-.23.43-.26.86-.07,1s.43-.17.55-.63c.29-1.11,0-1.3-.48-.35M310.38,347a1.42,1.42,0,0,0-.28.86c0,.42.12.46.42.15a.92.92,0,0,0,.28-.85c-.08-.24-.27-.31-.42-.16m-170.44,1.74-1.51,1.56L140,349c1.66-1.26,2.26-1.93,1.73-1.91a8.31,8.31,0,0,0-1.82,1.58m-38.68-.13c-.25.46-.27.85-.06,1s.46-.14.6-.57c.34-1.08,0-1.36-.54-.41m-45.63,2.51c0,1,.08,1.42.16.84a6.64,6.64,0,0,0,0-1.89c-.09-.46-.16,0-.16,1m276.38.18a3.81,3.81,0,0,0,1.28.75c.18,0-.1-.33-.63-.75a3.63,3.63,0,0,0-1.27-.74c-.18,0,.1.34.62.74m-186.5.48c-.7,1.42-1,2.67-.52,2.39s1.28-2.9,1-3.13c-.06-.06-.3.27-.53.74m58.64-.08a1.36,1.36,0,0,0,0,1c.12.12.22-.05.22-.38a.82.82,0,0,1,.46-.75c.33-.11.33-.22,0-.41s-.53.07-.67.52m89.73-.05c-.23.43-.27.79-.07.79.39,0,.92-1.15.66-1.41-.09-.09-.36.19-.59.62m29.26.21c-.63.51-1,.94-.73.94a3,3,0,0,0,1.29-.93c1.13-1.2.89-1.2-.56,0m-229.21.5c-1,1-1.37,1.85-.65,1.41a8.77,8.77,0,0,0,1.81-2.47,6.91,6.91,0,0,0-1.16,1.06m23.92-.11c0,.31.17.57.37.57s.38-.26.38-.57-.17-.57-.38-.57-.37.26-.37.57m23.66.34c-.6.49-.92,1-.72,1.11s.73-.28,1.18-.9c1-1.34.94-1.36-.46-.21m112.15-.31c-.73.73-.75.95,0,.68a1.48,1.48,0,0,0,.74-.74c.27-.7.05-.68-.69.06m29.78,1c-.72.8-.72.81.13.36.47-.24.85-.61.85-.81,0-.53-.18-.45-1,.45m-151.44,3c-3.35,3.45-2.5,2.93,1.22-.75a10.06,10.06,0,0,0,2.09-2.36,27.05,27.05,0,0,0-3.31,3.11m126.73-.82c0,1.18.15,1.82.38,1.68a3.31,3.31,0,0,0,.38-1.91c0-.92-.17-1.68-.38-1.68s-.38.86-.38,1.91m28.33-.4c-.72.61-1.13,1.12-.91,1.12a2.16,2.16,0,0,0,1.11-.75c.52-.57.77-.64,1-.29s.43.33.59.17.06-.43-.23-.61-.36-.36.2-.5.5-.2.15-.22a4.48,4.48,0,0,0-1.89,1.08m33.92-.47c-1,1.18-1.32,1.89-.54,1.26s1.55-1.92,1.26-1.92a2.78,2.78,0,0,0-.72.66m22.46.35a2.94,2.94,0,0,0,1.32,0c.36-.09.07-.17-.66-.17s-1,.08-.66.17m3.21,0a5.39,5.39,0,0,0,1.7,0c.47-.09.08-.16-.85-.16s-1.32.07-.85.16m-113.79.87c-1.26.83-1.1,1,.36.31.53-.24,1-.58,1-.75,0-.43,0-.42-1.32.44m-96.13,1.08a11.94,11.94,0,0,0-1.65,1.89c-.18.34.49-.19,1.49-1.17a7.82,7.82,0,0,0,1.66-1.88,4.8,4.8,0,0,0-1.5,1.16m65.35-.38a3.78,3.78,0,0,1-.23,1c-.13.32-.06.59.14.59.5,0,.86-1.45.43-1.72-.19-.11-.34,0-.34.16m-86.66.67c-.31.83.11,1.21.55.5s.46-1.12,0-1.12c-.19,0-.45.28-.58.62m33.49.52c0,.72.08,1,.17.66a2.94,2.94,0,0,0,0-1.32c-.09-.37-.17-.07-.17.66m21.16,0c0,.4.19.65.36.54.42-.26.37-1.27-.06-1.27-.19,0-.33.33-.3.73m9.51-.17c-.4.3-.56.55-.35.56.56,0,1.52-.67,1.28-.91s-.53.05-.93.35m68.94.23c-.38.71-.35.74.38.35.43-.23.69-.58.57-.78-.32-.52-.48-.45-.95.43m30.07-.19c-.62.45-.64.53-.12.53a1.13,1.13,0,0,0,.87-.4c.4-.65,0-.71-.75-.13m-190.43.59c-.71.8-.71.81.11.37s1.48-1.18,1-1.18a2.47,2.47,0,0,0-1.06.81m97.68-.43c0,.2.34.37.75.37s.76-.17.76-.37-.34-.38-.76-.38-.75.17-.75.38m42.15.71c-.62.68,1.6,3.44,2.77,3.44a2,2,0,0,1,.94.59c.33.33.59.42.59.2s-.5-.65-1.12-1c-2.17-1.12-3.56-3.06-2.37-3.29.42-.09.51-.23.24-.4s-.7,0-1,.43m94.8.67-1.1,1.37,1.2-.88c.65-.49,1.19-1.11,1.19-1.38,0-.7-.06-.66-1.29.89M120.88,359c-.49,1.3-.49,1.73,0,1.73.22,0,.3-.17.17-.37a1.54,1.54,0,0,1,.2-1.17c.23-.44.33-.89.22-1s-.39.25-.6.81m133.1-.11c-.72.81-.72.81.08.39.44-.23.91-.3,1.06-.16s.14,0,0-.39c-.31-.81-.29-.81-1.15.16m28.36.53c-.62.51-.95.93-.73.93a3.06,3.06,0,0,0,1.3-.94c1.12-1.2.89-1.19-.57,0M113.5,360c-.37.42-.49.76-.26.76s.61-.34.83-.76.34-.75.26-.75a3.62,3.62,0,0,0-.83.75m63.38-.28c-.93,1.19-1,1.49-.16,1s1.38-1.45.84-1.45a1.14,1.14,0,0,0-.68.47m68.85.12c-.9.9-.71,1.13.26.32.46-.39.92-.76,1-.82s0-.09-.25-.09a1.94,1.94,0,0,0-1,.59m30.09-.34a2.48,2.48,0,0,0-.91,1c-.41.76-.39.78.29.25,1.72-1.36,1.94-1.79.62-1.26m-183.75.65c-.37.28-.66.6-.66.73,0,.43,1.07-.18,1.28-.72s.22-.65-.62,0m77.61.61c0,.73.08,1,.17.66a2.94,2.94,0,0,0,0-1.32c-.09-.37-.17-.07-.17.66m145.6-.18c-1.38,1.21-.8,1.21.68,0,.62-.51,1-.93.75-.93a4.15,4.15,0,0,0-1.43.93m-92-.26c0,.17.44.55,1,.83a7.6,7.6,0,0,1,1.8,1.5c.84,1,1.75,1.7,1.75,1.35a24.2,24.2,0,0,0-4.21-4,.32.32,0,0,0-.32.32m-164.83.6a3.45,3.45,0,0,0,1.22,1.19c1,.64,1,.63-.11-.55s-1.41-1.42-1.11-.64m197.31-.26c0,.56,1.11,1.85,1.12,1.3a1.81,1.81,0,0,0-.55-1.07c-.31-.31-.57-.41-.57-.23m-105.48.88c.46.48.93.78,1.05.66s-.27-.51-.84-.87l-1.05-.66.84.87m39.38-.3a9.29,9.29,0,0,0,1.18,1.24c1,.93,1.11,1,.75.27s-1.93-1.93-1.93-1.51M102,362.36c.51.55,1,.93,1.08.84.27-.28-.29-.94-1.16-1.4s-.79-.38.08.56m77.26.67c-1,.85-2,1.64-2.06,1.77-.42.49,2.12-1.22,2.72-1.83a3.89,3.89,0,0,1,1.13-.84c.27-.1.4-.28.28-.4s-1.05.46-2.07,1.3m-48.57-.46c-.49.4-.8.83-.68.95s.62-.21,1.11-.73c1.05-1.12.82-1.23-.43-.22m26.5-.36c-.3.2-.44.47-.3.61s.53,0,.87-.36c.66-.66.32-.81-.57-.25m83.85,0c-.3.2-.44.47-.3.61s.53,0,.87-.36c.66-.66.32-.81-.57-.25m8.25.38c-.49.41-.71.75-.48.76a2.18,2.18,0,0,0,1.1-.74c.87-1,.53-1-.62,0m21.61.18c-.37.44-.31.5.33.33.43-.11.77-.35.77-.54,0-.51-.6-.4-1.1.21m-13.63.09a3.46,3.46,0,0,0,1,1.29l1,.91-.94-1.13c-.52-.63-1-1.21-1-1.29s-.1,0-.1.22m-71,.42c0,.55,3.21,3.86,3.74,3.86.26,0,0-.43-.67-1a20.91,20.91,0,0,1-2.1-2.11c-.53-.63-1-1-1-.79m-58.68,2c-1,.83-1.67,1.51-1.48,1.51.37,0,3.85-3,3.5-3a14,14,0,0,0-2,1.51m19.93-.05a2.62,2.62,0,0,0,1.06.81c.53,0,0-.71-1-1.19s-.82-.43-.11.38m19.11.34a1.54,1.54,0,0,0,.57.84c.32.27.57.31.57.1a1.53,1.53,0,0,0-.57-.85c-.32-.26-.57-.3-.57-.09M150,367.28a4.2,4.2,0,0,0,4.08,1c.73-.23.51-.3-1-.33s-2.11-.24-2.61-.79a2.38,2.38,0,0,0-1-.76c-.18,0,.06.41.53.9m21.46.57c-.7.2-.81.35-.44.58a.93.93,0,0,0,1.12-.3c.33-.34.53-.6.43-.58l-1.11.3m68,0c0,.21.25.38.54.38a1,1,0,0,0,.78-.38c.13-.2-.11-.37-.54-.37s-.78.17-.78.37m69.65.07c-.11.17.41.31,1.15.31a3.27,3.27,0,0,0,1.34-.14c0-.31-2.31-.47-2.49-.17m-236.94.09a7.84,7.84,0,0,0,3.6.11c.15-.14-.64-.27-1.75-.27s-1.94.07-1.85.16m32.45.22a2.86,2.86,0,0,0,1.32.37,2.89,2.89,0,0,0,1.32-.37c.41-.26,0-.36-1.32-.36s-1.73.1-1.32.36m88.85-.12a3,3,0,0,0,1.33,0c.36-.09.06-.17-.66-.17s-1,.08-.67.17m71.84.08c.68.27,2.48.13,2.48-.19a4.64,4.64,0,0,0-1.6-.12c-1.14,0-1.4.11-.88.31" transform="translate(-12.09 -4.54)"/><path id="path7" class="cls-9" d="M187.26,5.55a4.24,4.24,0,0,0,1.51,0c.36-.1,0-.17-.86-.17s-1.12.09-.65.17m7.92,0a5.39,5.39,0,0,0,1.7,0c.47-.08.09-.16-.85-.16s-1.31.08-.85.16m-14,.39a14.54,14.54,0,0,0,2.64,0c.79-.08.24-.15-1.22-.15s-2.09.07-1.42.15m18.89,0a14.54,14.54,0,0,0,2.64,0c.78-.08.23-.15-1.22-.15s-2.1.07-1.42.15m-23.22.36a2.94,2.94,0,0,0,1.32,0c.36-.09.06-.17-.66-.17s-1,.08-.66.17m28.7,0a2.94,2.94,0,0,0,1.32,0c.37-.09.07-.17-.66-.17s-1,.08-.66.17M162,8.31c-1.27.41.1.41,1.7,0,1-.26,1-.29.19-.3a7.3,7.3,0,0,0-1.89.3m59.68.15a2.48,2.48,0,0,0,1.11.31c.61.08,1,0,.92-.15s-2-.45-2-.16m-37,6.65c0,.21.68.38,1.51.38s1.51-.17,1.51-.38-.68-.38-1.51-.38-1.51.17-1.51.38m12.09,0c0,.21.59.38,1.32.38s1.32-.17,1.32-.38-.59-.38-1.32-.38-1.32.17-1.32.38m-25,.74a5.36,5.36,0,0,0-1.65.51c-.29.29,2.43-.13,3.45-.53s.13-.35-1.8,0M150.33,21l-1.32.51,1.32-.23c1.36-.23,1.76-.41,1.48-.65a3.56,3.56,0,0,0-1.48.37m82.54-.27a4.15,4.15,0,0,0,1.5.63c1.46.34,1.14,0-.56-.55-.72-.24-1.14-.28-.94-.08m-59,14.65c-.46.09-.85.32-.85.5s.51.15,1.14-.06c1-.36,1.57-.78.85-.65l-1.14.21m30.5-.14a3.13,3.13,0,0,0,1.22.61c.67.23,1.06.27.85.08-.43-.41-2.07-.95-2.07-.69m92.73,13.47a29.15,29.15,0,0,0,2.82,2.65,24.25,24.25,0,0,0-2.44-2.65,30.4,30.4,0,0,0-2.81-2.64,21.83,21.83,0,0,0,2.43,2.64M86.3,49.58,84,51.94l2.36-2.26c2.2-2.09,2.54-2.47,2.26-2.47-.06,0-1.12,1.07-2.36,2.37m150.15-1.86a3,3,0,0,0,1.22.6c.67.24,1.05.27.85.08-.43-.4-2.07-.94-2.07-.68M284.8,49.6A9.76,9.76,0,0,0,286,50.83l1.23,1.11-1.11-1.23c-1-1.15-1.34-1.4-1.34-1.11M82.32,53.54,81,55l1.42-1.3c1.31-1.22,1.59-1.54,1.3-1.54a13.57,13.57,0,0,0-1.42,1.42M291.41,55.9a21.27,21.27,0,0,0,2.43,2.27,16.78,16.78,0,0,0-2-2.27,21.21,21.21,0,0,0-2.44-2.26,16.85,16.85,0,0,0,2.06,2.26M78,58.26l-1.11,1.23,1.23-1.11c1.15-1,1.4-1.35,1.11-1.35A10.26,10.26,0,0,0,78,58.26m152.25,2.38c-.95.45-1,.51-.19.32a3.62,3.62,0,0,0,1.3-.57c.49-.46.22-.4-1.11.25m8.25,5.84c0,1.76.07,2.49.15,1.6a24.56,24.56,0,0,0,0-3.21c-.08-.88-.15-.16-.15,1.61m-86.94,7.16c-.22.63-.32,1.15-.23,1.15a3.69,3.69,0,0,0,.78-2.15c-.08-.09-.33.36-.55,1m-1.45,11.54c0,1.66.07,2.29.15,1.4a19,19,0,0,0,0-3c-.08-.77-.15,0-.15,1.62M62.7,84.83a3.81,3.81,0,0,0,2.15.78c.08-.09-.36-.34-1-.56s-1.15-.32-1.15-.22m183,.91c0,.58.13,1,.29.89a1.26,1.26,0,0,0,.28-.89,1.22,1.22,0,0,0-.28-.88c-.16-.1-.29.3-.29.88M238.3,90a4,4,0,0,0,2,.19l1.66-.13-2-.18c-1.08-.1-1.82,0-1.66.12M58.55,94.27a3.73,3.73,0,0,0,2.14.78c.09-.09-.36-.34-1-.56s-1.15-.32-1.15-.22m93,2.82c.22.64.47,1.08.55,1a3.67,3.67,0,0,0-.78-2.15c-.09,0,0,.52.23,1.15m160.19,18.49c0,.94.07,1.32.16.85a5.39,5.39,0,0,0,0-1.7c-.09-.47-.16-.08-.16.85m32.1.19c0,.83.08,1.13.17.66a4,4,0,0,0,0-1.51c-.09-.37-.17,0-.16.85M189.16,127a7.82,7.82,0,0,0,4,0c.41-.16-.45-.27-2-.26s-2.39.14-2,.28M88,131.57a3,3,0,0,0,1.22.6c.67.24,1,.27.85.08-.43-.4-2.07-.94-2.07-.68m-23.23.63c-.13.21,0,.28.33.16a2.14,2.14,0,0,1,1.43.21c.84.41.85.4.15-.16s-1.58-.76-1.91-.21M88.57,142a4.16,4.16,0,0,0,1.33.33c.35,0,.28-.12-.19-.33a4.13,4.13,0,0,0-1.32-.32c-.36,0-.29.12.18.32m-45.8,3c0,.73.08,1,.17.66a2.94,2.94,0,0,0,0-1.32c-.09-.36-.17-.06-.17.66m294.15-.36c-.39.26-.05.3,1.13.13,2.12-.31,2.42-.52.73-.52a4.3,4.3,0,0,0-1.86.39m4.7,9.24c0,5,.05,7,.12,4.42s.06-6.64,0-9.07-.12-.34-.12,4.65m-208.09-7.36a2.11,2.11,0,0,0,1.11.46c.51.1.86,0,.76-.1a2.2,2.2,0,0,0-1.11-.46c-.51-.09-.86-.05-.76.1M51.75,149c0,.56.16.89.37.75a.94.94,0,0,0,.38-.75,1,1,0,0,0-.38-.76c-.21-.13-.37.2-.37.76m91.81,0a6.42,6.42,0,0,0,1.29.39c.83.18,1,.14.57-.14s-2.24-.58-1.86-.25m76.36,2.76a3,3,0,0,0,1.33,0c.36-.09.06-.17-.66-.17s-1,.08-.67.17M183.31,154c2.87.07,7.46.07,10.2,0s.39-.11-5.22-.11-7.85,0-5,.11m-47.71,2.72a2.6,2.6,0,0,0,1.29.39c1,0,.66-.21-.72-.52-.83-.18-1-.15-.57.13m107.46,0-1.13.29,1,.05a1.67,1.67,0,0,0,1.25-.34c.13-.21.18-.36.12-.33l-1.25.33M332.52,160c0,1.87.07,2.68.15,1.81a27.53,27.53,0,0,0,0-3.4c-.08-1-.15-.28-.15,1.59m-167.55,2a5.39,5.39,0,0,0,1.7,0c.46-.09.08-.17-.85-.17s-1.32.08-.85.17m48,0a4,4,0,0,0,1.51,0c.36-.09,0-.17-.85-.16s-1.13.08-.66.17m-160.82.63a1,1,0,0,0,.38.8c.21.13.38,0,.38-.33a1,1,0,0,0-.38-.8c-.21-.13-.38,0-.38.33m-9.4,2.15a17.91,17.91,0,0,0,.32,3.37c.16.52.21-.5.11-2.26-.23-3.84-.48-4.5-.43-1.11m289.39,3.18c0,.84.08,1.13.17.66a4.23,4.23,0,0,0,0-1.51c-.09-.36-.17,0-.16.85m9.26.18c-.26.93-.11,1.46.3,1.05a1.79,1.79,0,0,0,.09-1.1l-.13-.88-.26.93M52.53,169.85a1.34,1.34,0,0,0,.35,1.07c.45.27.45-.1,0-1.14-.31-.73-.32-.72-.35.07m279.2,1.07c0,.83.08,1.12.17.65a4,4,0,0,0,0-1.51c-.09-.36-.16,0-.16.86M52.92,174.54a9.57,9.57,0,0,0,.35,2.23c.2.61.24.21.1-1.13-.25-2.38-.51-3-.45-1.1m286.36,8.65c0,.73.07,1,.17.66a3.26,3.26,0,0,0,0-1.32c-.1-.36-.17-.07-.17.66m-10.1,2.27a2.94,2.94,0,0,0-.09,1.36c.1.1.29-.37.42-1,.31-1.58,0-1.88-.33-.33m-2.39,9.42c-.22.63-.33,1.15-.23,1.15a3.67,3.67,0,0,0,.78-2.15c-.08-.08-.33.37-.55,1m7.6,6.83c-.23.62-.29,1.12-.12,1.12s.9-1.87.67-2.1c-.07-.08-.32.37-.55,1M50,202.27a4.15,4.15,0,0,0,.63,1.5c.2.2.16-.22-.08-1-.57-1.69-.9-2-.55-.55m271.77,6.85c-.21.55-.31,1.06-.22,1.15s.34-.36.56-1c.49-1.41.19-1.54-.34-.15M62.51,230a3.13,3.13,0,0,0,.78,1.13c.1,0-.08-.51-.4-1.13a3.19,3.19,0,0,0-.77-1.13c-.11,0,.07.5.39,1.13M87.63,249.1a8.29,8.29,0,0,0,1.47,1.33c.1,0-.39-.6-1.09-1.33a8.9,8.9,0,0,0-1.47-1.32c-.11,0,.39.6,1.09,1.32m206,3.31-1.11,1.23,1.23-1.11A9.76,9.76,0,0,0,295,251.3c0-.29-.31,0-1.34,1.11M19.83,262.23l-4.91,5,5-4.9c2.76-2.7,5-4.95,5-5,0-.27-.55.26-5.1,4.91m278-.76-1.1,1.23,1.22-1.11a8.8,8.8,0,0,0,1.23-1.23c0-.29-.31,0-1.35,1.11M252.19,261a4.43,4.43,0,0,1,.6,1.7l.17,1.13,0-1.18a2,2,0,0,0-.6-1.7c-.58-.45-.61-.44-.22.05m32.6,2.63A6.86,6.86,0,0,0,286,265c.23.15,0-.36-.63-1.12-1.27-1.66-1.74-1.87-.6-.27m-172,2.17a5.39,5.39,0,0,0,1.7,0c.47-.09.09-.16-.85-.16s-1.31.07-.85.16m156,0a5.39,5.39,0,0,0,1.7,0c.47-.09.08-.16-.85-.16s-1.32.07-.85.16m7.27,2.12a9.45,9.45,0,0,0,1.23,1.23l1.23,1.11L277.45,269c-1-1.15-1.34-1.4-1.34-1.11M48.35,274c2.38,2.39,4.41,4.35,4.52,4.35s-1.76-2-4.15-4.35-4.41-4.34-4.51-4.34S46,271.64,48.35,274m-25.6-2.53-.86,1.4.95-1.06a4.07,4.07,0,0,0,1-1.42c0-.55-.13-.42-1.05,1.08m225.12,3.1c0,.73.08,1,.17.66a2.94,2.94,0,0,0,0-1.32c-.09-.37-.17-.07-.17.66M134.6,277.24c0,1.77.06,2.49.14,1.61a21.5,21.5,0,0,0,0-3.21c-.08-.89-.14-.16-.14,1.6m-32.15-.38c0,.73.08,1,.17.67a3,3,0,0,0,0-1.33c-.09-.36-.17-.06-.17.66m145.34,2.49a5,5,0,0,0,.33,2c.21.32.26-.19.14-1.32-.25-2.3-.48-2.63-.47-.68M35.51,281.29a3.14,3.14,0,0,0,.77,1.29l.78.9-.66-1.14c-.88-1.49-.89-1.51-.89-1m96.38,6.34c-.24.52-.28.94-.1.94s.87-1.55.64-1.77c-.06-.07-.3.31-.54.83M38,288.83c-.44.44-.26,1.15.53,2.06l.78.9-.63-1a2.37,2.37,0,0,1-.42-1.61c.24-.61.15-.72-.26-.31m-7.36,4.25a5.3,5.3,0,0,0,1.45,1.35c.31.13,0-.37-.74-1.11-1.58-1.63-1.9-1.74-.71-.24m131.27-.71c.48.43,2.46.8,2.22.42a2.45,2.45,0,0,0-1.36-.52c-.63-.09-1,0-.86.1m58.94-.13c-.57.09-1,.3-1,.46,0,.39,1.83,0,2.1-.39.12-.19.16-.31.09-.28a9.59,9.59,0,0,1-1.15.21M45,292.71a2.71,2.71,0,0,0,1.29.39c1,0,.66-.21-.73-.52-.82-.18-1-.15-.56.13m130.34,2a14,14,0,0,0,2.42.35c1.41.13,1.91.1,1.33-.1-.94-.3-4-.51-3.75-.25m30,.24c-.47.2,0,.24,1.32.11a12.34,12.34,0,0,0,2.24-.35c.32-.28-2.84-.07-3.56.24M50.17,296.71a3,3,0,0,0,.77,1.75c.52.39.54.38.15-.07a2.73,2.73,0,0,1-.48-1.56,1.84,1.84,0,0,0-.3-1.22c-.16-.1-.23.39-.14,1.1m213.47.91a2.78,2.78,0,0,0,1.29.39c1,0,.67-.21-.72-.52-.83-.18-1-.15-.57.13m-110.09,2.3a2.21,2.21,0,0,0,1.11.45c.51.1.86.06.76-.1a2.21,2.21,0,0,0-1.11-.45c-.51-.1-.86-.06-.76.1m9.83,2.28a2.65,2.65,0,0,0,1.28.43c.61.09,1,0,1-.11a2.57,2.57,0,0,0-1.28-.42c-.61-.09-1-.05-1,.1m55.32.19-2.08.5,2.08-.21a6.72,6.72,0,0,0,2.43-.55c.45-.42.23-.4-2.43.26m124.05,1-1.11,1.23,1.23-1.11a8.8,8.8,0,0,0,1.23-1.23c0-.29-.31,0-1.35,1.11M253,307.46a2.57,2.57,0,0,0,.31,1.13,2.31,2.31,0,0,0,.15-1.13c0-.62-.14-1.13-.32-1.13s-.23.51-.14,1.13m-201.24-.25a3,3,0,0,0,1.22.6c.67.24,1.05.27.85.08-.43-.4-2.07-.94-2.07-.68m189,3.27c-.13.21,0,.38.34.38a1,1,0,0,0,.8-.38c.12-.21,0-.38-.34-.38a1,1,0,0,0-.8.38m-36.07.38c0,.21.43.38.95.38s.94-.17.94-.38-.43-.38-.94-.38-.95.17-.95.38m131.07-.26a8.8,8.8,0,0,0,1.23,1.23l1.22,1.11-1.11-1.23c-1-1.14-1.34-1.4-1.34-1.11m-102.55,3.66c-.69.29-.67.32.19.32a5.14,5.14,0,0,0,1.7-.32c.69-.3.67-.33-.19-.33a5.09,5.09,0,0,0-1.7.33m-17.65.27a10,10,0,0,0,2.26,0c.57-.09,0-.16-1.23-.15s-1.71.07-1,.15m6.84.39c-.45.57-.45.6,0,.22a4.49,4.49,0,0,1,1.7-.6l1.14-.17-1.18-.05a2,2,0,0,0-1.7.6m158.82,3.49c0,1.77.06,2.49.14,1.61a21.5,21.5,0,0,0,0-3.21c-.08-.89-.14-.16-.14,1.6m-249.45-.13c-.21.55-.31,1.06-.22,1.15s.34-.36.56-1c.49-1.41.19-1.54-.34-.15m-53.74,1.36a3.89,3.89,0,0,0,2.9,0c.1-.16-.56-.28-1.45-.28s-1.55.12-1.45.28m-9.38,3.71c-.08.85,0,1.62.15,1.72s.29-.59.29-1.53c0-2.14-.25-2.24-.44-.19m6.86-1.18a2.74,2.74,0,0,0,1.29.39c1,0,.67-.21-.72-.52-.83-.18-1-.15-.57.13m140.11,1.4a2.2,2.2,0,0,0-.22,1.15c.09.08.34-.36.56-1,.49-1.41.19-1.55-.34-.15m108.67,0a3.3,3.3,0,0,0-.21,1.24c0,.35.18.13.37-.48.35-1.19.23-1.78-.16-.76m-192.4,3c-.22.72-.27,1.32-.11,1.32s.88-2.28.65-2.52c-.08-.07-.32.47-.54,1.2M304.6,334l-1.11,1.23,1.23-1.11a9.74,9.74,0,0,0,1.23-1.22c0-.3-.31,0-1.35,1.1m31,1.52-1.87,2,2-1.88a25.24,25.24,0,0,0,2-2c0-.28-.35,0-2.1,1.88m-253-1.21a2.55,2.55,0,0,0,1.28.43c.61.09,1,0,1-.1a2.59,2.59,0,0,0-1.28-.43c-.61-.09-1,0-1,.1m191.05.27c-.24.15.29.27,1.19.27s1.43-.12,1.19-.27a2.58,2.58,0,0,0-1.19-.28,2.55,2.55,0,0,0-1.19.28M83.19,336.43a3.26,3.26,0,0,0,1.32,0c.37-.1.07-.18-.66-.18s-1,.08-.66.18M362,340.7a39.13,39.13,0,0,0,3.19,3,29.08,29.08,0,0,0-2.81-3,39.13,39.13,0,0,0-3.19-3,29.08,29.08,0,0,0,2.81,3m-99.55.28-1.3,1.42,1.42-1.3c1.31-1.21,1.59-1.53,1.3-1.53a12.92,12.92,0,0,0-1.42,1.41m61.62-.83a2.74,2.74,0,0,0,.56,1.52c.33.4.48.5.34.23a13,13,0,0,1-.56-1.51c-.25-.81-.31-.86-.34-.24M314.74,342c0,1,.08,1.42.17.84a6.93,6.93,0,0,0,0-1.88c-.09-.47-.16,0-.16,1M174,343.94a2.43,2.43,0,0,0-.09,1.17c.09.08.28-.3.42-.85a2.19,2.19,0,0,0,.09-1.17c-.09-.09-.28.29-.42.85m160.65-.12a2.08,2.08,0,0,0,1.7.6l1.18-.06-1.13-.16a4.48,4.48,0,0,1-1.71-.61c-.49-.38-.49-.35,0,.23m-190.9,2.26-1.88,2,2-1.87a26.13,26.13,0,0,0,2-2c0-.29-.35,0-2.09,1.87m188.33-.5a3.82,3.82,0,0,1-.87,1.52l-.84,1,1.08-1c.59-.55,1-1.23.86-1.52s-.2-.4-.23,0m-42.55,2-1.1,1.23,1.22-1.11a8.8,8.8,0,0,0,1.23-1.23c0-.29-.31,0-1.35,1.11m-61.29,1.78c-.22.63-.32,1.15-.22,1.15a3.67,3.67,0,0,0,.78-2.15c-.08-.08-.34.36-.56,1m-81.38-.48a8.25,8.25,0,0,0-.41,1.63l-.23,1.32.56-1.48c.51-1.31.56-2.28.08-1.47m24.74,1.5c-.23.76-.27,1.22-.09,1,.37-.38.95-2.42.68-2.42a4,4,0,0,0-.59,1.38m-52.36,0a2.19,2.19,0,0,0-.09,1.17c.08.08.27-.3.41-.85a2.19,2.19,0,0,0,.09-1.17c-.09-.09-.28.29-.41.85m165,2.9L282,355.62l2.37-2.26c1.29-1.24,2.36-2.3,2.36-2.36,0-.28-.38.07-2.47,2.26m54,.7a3.11,3.11,0,0,0,1.45.4c.72.09,1.23,0,1.14-.1a3.07,3.07,0,0,0-1.45-.41c-.72-.08-1.23,0-1.14.11m-205.7,2.51-2.07,2.17,2.17-2.06c2-1.92,2.35-2.28,2.07-2.28a28.92,28.92,0,0,0-2.17,2.17m211.25-1.9a26.73,26.73,0,0,0,3.58,0c1-.07.18-.14-1.79-.14s-2.78.07-1.79.14m-207.3,2.09-1.11,1.23,1.23-1.12c1.14-1,1.4-1.34,1.11-1.34a8.8,8.8,0,0,0-1.23,1.23m-21.16,1.7c-.39.27-1,1.6-.75,1.6a3.74,3.74,0,0,0,.75-.94c.65-1,.65-1.1,0-.66m54,2.36c0,.93.07,1.32.16.85a5.39,5.39,0,0,0,0-1.7c-.09-.47-.16-.09-.16.85m16.52-.35a3.26,3.26,0,0,0,.38,1.48c.26.4.3.17.13-.75-.3-1.63-.52-1.94-.51-.73m121.36,1.48c0,1.35.07,1.9.16,1.23a12.64,12.64,0,0,0,0-2.46c-.09-.67-.16-.12-.16,1.23m-176.15-.09-1.31,1.41,1.42-1.3c1.32-1.21,1.59-1.53,1.3-1.53a13,13,0,0,0-1.41,1.42m178.49-.28c-.36.58.11,1.7,1,2.49l.84.71-.7-.82a3.61,3.61,0,0,1-.76-1.8c-.06-1.08-.1-1.13-.43-.58m-210.2,2.83a8.49,8.49,0,0,0,1.47,1.32c.1,0-.39-.6-1.09-1.32A8.69,8.69,0,0,0,98.25,363c-.11,0,.38.6,1.09,1.33m71.18-.78a1.9,1.9,0,0,0,2.47.19c.43-.29.32-.32-.43-.15a3.27,3.27,0,0,1-1.89-.2c-.85-.41-.85-.4-.15.16m-101.59.21a4.33,4.33,0,0,0,1.51.31c.61,0,.57-.07-.19-.31-1.29-.41-2.28-.41-1.32,0m85.18,0c-1.31.27-1.31.28-.19.32a3.53,3.53,0,0,0,1.7-.32c.63-.41.42-.41-1.51,0m114.82.19c-.72.28-1.06.51-.75.52a5.53,5.53,0,0,0,1.7-.51c1.46-.67.78-.68-.95,0m-163.07.83a3.26,3.26,0,0,0,1.32,0c.36-.1.06-.18-.66-.18s-1,.08-.66.18m-32.49,3a3.26,3.26,0,0,0,1.32,0c.37-.1.07-.18-.66-.18s-1,.08-.66.18m31.92,0a4.24,4.24,0,0,0,1.51,0c.36-.1,0-.17-.85-.17s-1.13.08-.66.17" transform="translate(-12.09 -4.54)"/><path id="path8" class="cls-10" d="M120.49,268.3a9.74,9.74,0,0,0,1.23,1.22l1.23,1.11-1.11-1.23c-1-1.14-1.35-1.4-1.35-1.1M113,288.09a6.62,6.62,0,0,0,1.89,0c.46-.09,0-.16-1.05-.15s-1.42.07-.84.16m156,0a6.61,6.61,0,0,0,1.89,0c.47-.09,0-.16-1-.15s-1.42.07-.85.16" transform="translate(-12.09 -4.54)"/></g></svg>